<?xml version="1.0" encoding="UTF-8" standalone="no"?><!-- Generator: Gravit.io --><svg xmlns="http://www.w3.org/2000/svg" xmlns:xlink="http://www.w3.org/1999/xlink" style="isolation:isolate" viewBox="-2023.146 6847 2111 809" width="2111pt" height="809pt"><defs><clipPath id="_clipPath_vTouxav64OWLH6ZKnDWBOihahrgBRG6r"><rect x="-6519.345" y="-35" width="10134.345" height="7754"/></clipPath></defs><g clip-path="url(#_clipPath_vTouxav64OWLH6ZKnDWBOihahrgBRG6r)"><path d="M -4078.44 3065 L -3678.56 3065 C -3576.699 3065 -3494 3147.699 -3494 3249.56 L -3494 3649.44 C -3494 3751.301 -3576.699 3834 -3678.56 3834 L -4078.44 3834 C -4180.301 3834 -4263 3751.301 -4263 3649.44 L -4263 3249.56 C -4263 3147.699 -4180.301 3065 -4078.44 3065 Z" style="stroke:none;fill:#000000;stroke-miterlimit:10;"/><path d="M -4078.44 3065 L -3678.56 3065 C -3576.699 3065 -3494 3147.699 -3494 3249.56 L -3494 3649.44 C -3494 3751.301 -3576.699 3834 -3678.56 3834 L -4078.44 3834 C -4180.301 3834 -4263 3751.301 -4263 3649.44 L -4263 3249.56 C -4263 3147.699 -4180.301 3065 -4078.44 3065 Z" style="fill:none;stroke:#000000;stroke-width:40;stroke-linecap:square;stroke-miterlimit:2;"/><path d="M -4078.44 4600 L -3678.56 4600 C -3576.699 4600 -3494 4682.699 -3494 4784.56 L -3494 5184.44 C -3494 5286.301 -3576.699 5369 -3678.56 5369 L -4078.44 5369 C -4180.301 5369 -4263 5286.301 -4263 5184.44 L -4263 4784.56 C -4263 4682.699 -4180.301 4600 -4078.44 4600 Z" style="stroke:none;fill:#FFFFFF;stroke-linecap:square;stroke-miterlimit:2;"/><path d="M -4078.44 4600 L -3678.56 4600 C -3576.699 4600 -3494 4682.699 -3494 4784.56 L -3494 5184.44 C -3494 5286.301 -3576.699 5369 -3678.56 5369 L -4078.44 5369 C -4180.301 5369 -4263 5286.301 -4263 5184.44 L -4263 4784.56 C -4263 4682.699 -4180.301 4600 -4078.44 4600 Z" style="fill:none;stroke:#000000;stroke-width:40;stroke-linecap:square;stroke-miterlimit:2;"/><path d="M -2200.44 3065 L -1800.56 3065 C -1698.699 3065 -1616 3147.699 -1616 3249.56 L -1616 3649.44 C -1616 3751.301 -1698.699 3834 -1800.56 3834 L -2200.44 3834 C -2302.301 3834 -2385 3751.301 -2385 3649.44 L -2385 3249.56 C -2385 3147.699 -2302.301 3065 -2200.44 3065 Z" style="stroke:none;fill:#000000;stroke-linecap:square;stroke-miterlimit:2;"/><path d="M -2200.44 3065 L -1800.56 3065 C -1698.699 3065 -1616 3147.699 -1616 3249.56 L -1616 3649.44 C -1616 3751.301 -1698.699 3834 -1800.56 3834 L -2200.44 3834 C -2302.301 3834 -2385 3751.301 -2385 3649.44 L -2385 3249.56 C -2385 3147.699 -2302.301 3065 -2200.44 3065 Z" style="fill:none;stroke:#000000;stroke-width:40;stroke-linecap:square;stroke-miterlimit:2;"/><path d="M -2200.44 4600 L -1800.56 4600 C -1698.699 4600 -1616 4682.699 -1616 4784.56 L -1616 5184.44 C -1616 5286.301 -1698.699 5369 -1800.56 5369 L -2200.44 5369 C -2302.301 5369 -2385 5286.301 -2385 5184.44 L -2385 4784.56 C -2385 4682.699 -2302.301 4600 -2200.44 4600 Z" style="stroke:none;fill:#FFFFFF;stroke-linecap:square;stroke-miterlimit:2;"/><path d="M -2200.44 4600 L -1800.56 4600 C -1698.699 4600 -1616 4682.699 -1616 4784.56 L -1616 5184.44 C -1616 5286.301 -1698.699 5369 -1800.56 5369 L -2200.44 5369 C -2302.301 5369 -2385 5286.301 -2385 5184.44 L -2385 4784.56 C -2385 4682.699 -2302.301 4600 -2200.44 4600 Z" style="fill:none;stroke:#000000;stroke-width:40;stroke-linecap:square;stroke-miterlimit:2;"/><path d="M -6314.785 6867 L -5914.905 6867 C -5813.043 6867 -5730.345 6949.699 -5730.345 7051.56 L -5730.345 7451.44 C -5730.345 7553.301 -5813.043 7636 -5914.905 7636 L -6314.785 7636 C -6416.646 7636 -6499.345 7553.301 -6499.345 7451.44 L -6499.345 7051.56 C -6499.345 6949.699 -6416.646 6867 -6314.785 6867 Z" style="stroke:none;fill:#FFFFFF;stroke-linecap:square;stroke-miterlimit:2;"/><path d="M -6314.785 6867 L -5914.905 6867 C -5813.043 6867 -5730.345 6949.699 -5730.345 7051.56 L -5730.345 7451.44 C -5730.345 7553.301 -5813.043 7636 -5914.905 7636 L -6314.785 7636 C -6416.646 7636 -6499.345 7553.301 -6499.345 7451.44 L -6499.345 7051.56 C -6499.345 6949.699 -6416.646 6867 -6314.785 6867 Z" style="fill:none;stroke:#000000;stroke-width:40;stroke-linecap:square;stroke-miterlimit:2;"/><path d="M -1818.586 6867 L -1418.706 6867 C -1316.844 6867 -1234.146 6949.699 -1234.146 7051.56 L -1234.146 7451.44 C -1234.146 7553.301 -1316.844 7636 -1418.706 7636 L -1818.586 7636 C -1920.447 7636 -2003.146 7553.301 -2003.146 7451.44 L -2003.146 7051.56 C -2003.146 6949.699 -1920.447 6867 -1818.586 6867 Z" style="stroke:none;fill:#FFFFFF;stroke-linecap:square;stroke-miterlimit:2;"/><path d="M -1818.586 6867 L -1418.706 6867 C -1316.844 6867 -1234.146 6949.699 -1234.146 7051.56 L -1234.146 7451.44 C -1234.146 7553.301 -1316.844 7636 -1418.706 7636 L -1818.586 7636 C -1920.447 7636 -2003.146 7553.301 -2003.146 7451.44 L -2003.146 7051.56 C -2003.146 6949.699 -1920.447 6867 -1818.586 6867 Z" style="fill:none;stroke:#000000;stroke-width:40;stroke-linecap:square;stroke-miterlimit:2;"/><path d="M 1933.56 6867 L 2333.44 6867 C 2435.301 6867 2518 6949.699 2518 7051.56 L 2518 7451.44 C 2518 7553.301 2435.301 7636 2333.44 7636 L 1933.56 7636 C 1831.699 7636 1749 7553.301 1749 7451.44 L 1749 7051.56 C 1749 6949.699 1831.699 6867 1933.56 6867 Z" style="stroke:none;fill:#FFFFFF;stroke-linecap:square;stroke-miterlimit:2;"/><path d="M 1933.56 6867 L 2333.44 6867 C 2435.301 6867 2518 6949.699 2518 7051.56 L 2518 7451.44 C 2518 7553.301 2435.301 7636 2333.44 7636 L 1933.56 7636 C 1831.699 7636 1749 7553.301 1749 7451.44 L 1749 7051.56 C 1749 6949.699 1831.699 6867 1933.56 6867 Z" style="fill:none;stroke:#000000;stroke-width:40;stroke-linecap:square;stroke-miterlimit:2;"/><path d="M -427.44 3065 L -27.56 3065 C 74.301 3065 157 3147.699 157 3249.56 L 157 3649.44 C 157 3751.301 74.301 3834 -27.56 3834 L -427.44 3834 C -529.301 3834 -612 3751.301 -612 3649.44 L -612 3249.56 C -612 3147.699 -529.301 3065 -427.44 3065 Z" style="stroke:none;fill:#000000;stroke-linecap:square;stroke-miterlimit:2;"/><path d="M -427.44 3065 L -27.56 3065 C 74.301 3065 157 3147.699 157 3249.56 L 157 3649.44 C 157 3751.301 74.301 3834 -27.56 3834 L -427.44 3834 C -529.301 3834 -612 3751.301 -612 3649.44 L -612 3249.56 C -612 3147.699 -529.301 3065 -427.44 3065 Z" style="fill:none;stroke:#000000;stroke-width:40;stroke-linecap:square;stroke-miterlimit:2;"/><path d="M -427.44 4600 L -27.56 4600 C 74.301 4600 157 4682.699 157 4784.56 L 157 5184.44 C 157 5286.301 74.301 5369 -27.56 5369 L -427.44 5369 C -529.301 5369 -612 5286.301 -612 5184.44 L -612 4784.56 C -612 4682.699 -529.301 4600 -427.44 4600 Z" style="stroke:none;fill:#FFFFFF;stroke-linecap:square;stroke-miterlimit:2;"/><path d="M -427.44 4600 L -27.56 4600 C 74.301 4600 157 4682.699 157 4784.56 L 157 5184.44 C 157 5286.301 74.301 5369 -27.56 5369 L -427.44 5369 C -529.301 5369 -612 5286.301 -612 5184.44 L -612 4784.56 C -612 4682.699 -529.301 4600 -427.44 4600 Z" style="fill:none;stroke:#000000;stroke-width:40;stroke-linecap:square;stroke-miterlimit:2;"/><path d=" M -950 329.427 L -950 178.427 L -861 178.427 Q -799 174.902 -799 102.427 C -799 58.723 -836.5 25 -871 25 C -905.5 25 -950 42.26 -950 95.801 Q -950 130.301 -950 178.427" fill="none" vector-effect="non-scaling-stroke" stroke-width="40" stroke="rgb(0,0,0)" stroke-linejoin="miter" stroke-linecap="square" stroke-miterlimit="3"/><line x1="-950" y1="481.568" x2="-950" y2="444.697" vector-effect="non-scaling-stroke" stroke-width="40" stroke="rgb(0,0,0)" stroke-linejoin="miter" stroke-linecap="square" stroke-miterlimit="3"/><line x1="-950" y1="2231.568" x2="-950" y2="2194.697" vector-effect="non-scaling-stroke" stroke-width="40" stroke="rgb(0,0,0)" stroke-linejoin="miter" stroke-linecap="square" stroke-miterlimit="3"/><line x1="-141.854" y1="3681.568" x2="-141.854" y2="3644.697" vector-effect="non-scaling-stroke" stroke-width="40" stroke="rgb(255,255,255)" stroke-linejoin="miter" stroke-linecap="square" stroke-miterlimit="3"/><line x1="-141.854" y1="5231.568" x2="-141.854" y2="5194.697" vector-effect="non-scaling-stroke" stroke-width="40" stroke="rgb(0,0,0)" stroke-linejoin="miter" stroke-linecap="square" stroke-miterlimit="3"/><line x1="-2078" y1="481.568" x2="-2078" y2="444.697" vector-effect="non-scaling-stroke" stroke-width="40" stroke="rgb(0,0,0)" stroke-linejoin="miter" stroke-linecap="square" stroke-miterlimit="3"/><line x1="-2078" y1="2231.568" x2="-2078" y2="2194.697" vector-effect="non-scaling-stroke" stroke-width="40" stroke="rgb(0,0,0)" stroke-linejoin="miter" stroke-linecap="square" stroke-miterlimit="3"/><line x1="-1924" y1="3681.568" x2="-1924" y2="3644.697" vector-effect="non-scaling-stroke" stroke-width="40" stroke="rgb(255,255,255)" stroke-linejoin="miter" stroke-linecap="square" stroke-miterlimit="3"/><line x1="-1924" y1="5231.568" x2="-1924" y2="5194.697" vector-effect="non-scaling-stroke" stroke-width="40" stroke="rgb(0,0,0)" stroke-linejoin="miter" stroke-linecap="square" stroke-miterlimit="3"/><line x1="-6038.345" y1="7498.568" x2="-6038.345" y2="7461.697" vector-effect="non-scaling-stroke" stroke-width="40" stroke="rgb(0,0,0)" stroke-linejoin="miter" stroke-linecap="square" stroke-miterlimit="3"/><line x1="-1542.146" y1="7498.568" x2="-1542.146" y2="7461.697" vector-effect="non-scaling-stroke" stroke-width="40" stroke="rgb(0,0,0)" stroke-linejoin="miter" stroke-linecap="square" stroke-miterlimit="3"/><line x1="2210" y1="7498.568" x2="2210" y2="7461.697" vector-effect="non-scaling-stroke" stroke-width="40" stroke="rgb(0,0,0)" stroke-linejoin="miter" stroke-linecap="square" stroke-miterlimit="3"/><line x1="-3094.854" y1="481.568" x2="-3094.854" y2="444.697" vector-effect="non-scaling-stroke" stroke-width="40" stroke="rgb(0,0,0)" stroke-linejoin="miter" stroke-linecap="square" stroke-miterlimit="3"/><line x1="-3094.854" y1="2231.568" x2="-3094.854" y2="2194.697" vector-effect="non-scaling-stroke" stroke-width="40" stroke="rgb(0,0,0)" stroke-linejoin="miter" stroke-linecap="square" stroke-miterlimit="3"/><line x1="-3794.854" y1="3681.568" x2="-3794.854" y2="3644.697" vector-effect="non-scaling-stroke" stroke-width="40" stroke="rgb(255,255,255)" stroke-linejoin="miter" stroke-linecap="square" stroke-miterlimit="3"/><line x1="-3794.854" y1="5231.568" x2="-3794.854" y2="5194.697" vector-effect="non-scaling-stroke" stroke-width="40" stroke="rgb(0,0,0)" stroke-linejoin="miter" stroke-linecap="square" stroke-miterlimit="3"/><path d=" M -970.573 176 L -1103.573 176 L -1103.573 87 Q -1107.098 25 -1179.573 25 C -1223.277 25 -1257 62.5 -1257 97 C -1257 131.5 -1239.74 176 -1186.199 176 Q -1151.699 176 -1103.573 176" fill="none" vector-effect="non-scaling-stroke" stroke-width="40" stroke="rgb(0,0,0)" stroke-linejoin="miter" stroke-linecap="square" stroke-miterlimit="3"/><path d=" M -970.573 1926 L -1103.573 1926 L -1103.573 1837 Q -1107.098 1775 -1179.573 1775 C -1223.277 1775 -1257 1812.5 -1257 1847 C -1257 1881.5 -1239.74 1926 -1186.199 1926 Q -1151.699 1926 -1103.573 1926" fill="none" vector-effect="non-scaling-stroke" stroke-width="40" stroke="rgb(0,0,0)" stroke-linejoin="miter" stroke-linecap="square" stroke-miterlimit="3"/><path d=" M -162.427 3376 L -295.427 3376 L -295.427 3287 Q -298.952 3225 -371.427 3225 C -415.132 3225 -448.854 3262.5 -448.854 3297 C -448.854 3331.5 -431.594 3376 -378.053 3376 Q -343.553 3376 -295.427 3376" fill="none" vector-effect="non-scaling-stroke" stroke-width="40" stroke="rgb(255,255,255)" stroke-linejoin="miter" stroke-linecap="square" stroke-miterlimit="3"/><path d=" M -162.427 4926 L -295.427 4926 L -295.427 4837 Q -298.952 4775 -371.427 4775 C -415.132 4775 -448.854 4812.5 -448.854 4847 C -448.854 4881.5 -431.594 4926 -378.053 4926 Q -343.553 4926 -295.427 4926" fill="none" vector-effect="non-scaling-stroke" stroke-width="40" stroke="rgb(0,0,0)" stroke-linejoin="miter" stroke-linecap="square" stroke-miterlimit="3"/><path d=" M -2176.009 176 L -2231.573 176 L -2231.573 87 Q -2235.098 25 -2307.573 25 C -2351.277 25 -2385 62.5 -2385 97 C -2385 131.5 -2367.74 176 -2314.199 176 Q -2279.699 176 -2231.573 176" fill="none" vector-effect="non-scaling-stroke" stroke-width="40" stroke="rgb(0,0,0)" stroke-linejoin="miter" stroke-linecap="square" stroke-miterlimit="3"/><path d=" M -2176.009 1926 L -2231.573 1926 L -2231.573 1837 Q -2235.098 1775 -2307.573 1775 C -2351.277 1775 -2385 1812.5 -2385 1847 C -2385 1881.5 -2367.74 1926 -2314.199 1926 Q -2279.699 1926 -2231.573 1926" fill="none" vector-effect="non-scaling-stroke" stroke-width="40" stroke="rgb(0,0,0)" stroke-linejoin="miter" stroke-linecap="square" stroke-miterlimit="3"/><path d=" M -2022.009 3376 L -2077.573 3376 L -2077.573 3287 Q -2081.098 3225 -2153.573 3225 C -2197.277 3225 -2231 3262.5 -2231 3297 C -2231 3331.5 -2213.74 3376 -2160.199 3376 Q -2125.699 3376 -2077.573 3376" fill="none" vector-effect="non-scaling-stroke" stroke-width="40" stroke="rgb(255,255,255)" stroke-linejoin="miter" stroke-linecap="square" stroke-miterlimit="3"/><path d=" M -2022.009 4926 L -2077.573 4926 L -2077.573 4837 Q -2081.098 4775 -2153.573 4775 C -2197.277 4775 -2231 4812.5 -2231 4847 C -2231 4881.5 -2213.74 4926 -2160.199 4926 Q -2125.699 4926 -2077.573 4926" fill="none" vector-effect="non-scaling-stroke" stroke-width="40" stroke="rgb(0,0,0)" stroke-linejoin="miter" stroke-linecap="square" stroke-miterlimit="3"/><path d=" M -6136.354 7193 L -6191.918 7193 L -6191.918 7104 Q -6195.443 7042 -6267.918 7042 C -6311.622 7042 -6345.345 7079.5 -6345.345 7114 C -6345.345 7148.5 -6328.084 7193 -6274.544 7193 Q -6240.044 7193 -6191.918 7193" fill="none" vector-effect="non-scaling-stroke" stroke-width="40" stroke="rgb(0,0,0)" stroke-linejoin="miter" stroke-linecap="square" stroke-miterlimit="3"/><path d=" M -1640.155 7193 L -1695.719 7193 L -1695.719 7104 Q -1699.244 7042 -1771.719 7042 C -1815.423 7042 -1849.146 7079.5 -1849.146 7114 C -1849.146 7148.5 -1831.885 7193 -1778.345 7193 Q -1743.845 7193 -1695.719 7193" fill="none" vector-effect="non-scaling-stroke" stroke-width="40" stroke="rgb(0,0,0)" stroke-linejoin="miter" stroke-linecap="square" stroke-miterlimit="3"/><path d=" M 2111.991 7193 L 2056.427 7193 L 2056.427 7104 Q 2052.902 7042 1980.427 7042 C 1936.723 7042 1903 7079.5 1903 7114 C 1903 7148.5 1920.26 7193 1973.801 7193 Q 2008.301 7193 2056.427 7193" fill="none" vector-effect="non-scaling-stroke" stroke-width="40" stroke="rgb(0,0,0)" stroke-linejoin="miter" stroke-linecap="square" stroke-miterlimit="3"/><path d=" M -3248.427 176 L -3248.427 87 Q -3251.952 25 -3324.427 25 C -3368.132 25 -3401.854 62.5 -3401.854 97 C -3401.854 131.5 -3384.594 176 -3331.053 176 Q -3296.553 176 -3248.427 176" fill="none" vector-effect="non-scaling-stroke" stroke-width="40" stroke="rgb(0,0,0)" stroke-linejoin="miter" stroke-linecap="square" stroke-miterlimit="3"/><path d=" M -3249.427 1926 L -3248.427 1837 Q -3251.952 1775 -3324.427 1775 C -3368.132 1775 -3401.854 1812.5 -3401.854 1847 C -3401.854 1881.5 -3384.594 1926 -3331.053 1926 Q -3296.553 1926 -3248.427 1926" fill="none" vector-effect="non-scaling-stroke" stroke-width="40" stroke="rgb(0,0,0)" stroke-linejoin="miter" stroke-linecap="square" stroke-miterlimit="3"/><clipPath id="_clipPath_jvcPRLB0WevOX0mREAZFG8aokASsqZwW"><path d=" M -3249.427 1926 L -3248.427 1837 Q -3251.952 1775 -3324.427 1775 C -3368.132 1775 -3401.854 1812.5 -3401.854 1847 C -3401.854 1881.5 -3384.594 1926 -3331.053 1926 Q -3296.553 1926 -3248.427 1926" fill="none" vector-effect="non-scaling-stroke" stroke-width="40" stroke="rgb(0,0,0)" stroke-linejoin="miter" stroke-linecap="square" stroke-miterlimit="3"/></clipPath><g clip-path="url(#_clipPath_jvcPRLB0WevOX0mREAZFG8aokASsqZwW)"><path d="M -4078.44 4615 L -3678.56 4615 C -3576.699 4615 -3494 4697.699 -3494 4799.56 L -3494 5199.44 C -3494 5301.301 -3576.699 5384 -3678.56 5384 L -4078.44 5384 C -4180.301 5384 -4263 5301.301 -4263 5199.44 L -4263 4799.56 C -4263 4697.699 -4180.301 4615 -4078.44 4615 Z" style="stroke:none;fill:#000000;stroke-linecap:square;stroke-miterlimit:2;"/><path d="M -4078.44 4615 L -3678.56 4615 C -3576.699 4615 -3494 4697.699 -3494 4799.56 L -3494 5199.44 C -3494 5301.301 -3576.699 5384 -3678.56 5384 L -4078.44 5384 C -4180.301 5384 -4263 5301.301 -4263 5199.44 L -4263 4799.56 C -4263 4697.699 -4180.301 4615 -4078.44 4615 Z" style="fill:none;stroke:#000000;stroke-width:40;stroke-linecap:square;stroke-miterlimit:2;"/><path d="M -2200.44 4615 L -1800.56 4615 C -1698.699 4615 -1616 4697.699 -1616 4799.56 L -1616 5199.44 C -1616 5301.301 -1698.699 5384 -1800.56 5384 L -2200.44 5384 C -2302.301 5384 -2385 5301.301 -2385 5199.44 L -2385 4799.56 C -2385 4697.699 -2302.301 4615 -2200.44 4615 Z" style="stroke:none;fill:#000000;stroke-linecap:square;stroke-miterlimit:2;"/><path d="M -2200.44 4615 L -1800.56 4615 C -1698.699 4615 -1616 4697.699 -1616 4799.56 L -1616 5199.44 C -1616 5301.301 -1698.699 5384 -1800.56 5384 L -2200.44 5384 C -2302.301 5384 -2385 5301.301 -2385 5199.44 L -2385 4799.56 C -2385 4697.699 -2302.301 4615 -2200.44 4615 Z" style="fill:none;stroke:#000000;stroke-width:40;stroke-linecap:square;stroke-miterlimit:2;"/><path d="M -427.44 4615 L -27.56 4615 C 74.301 4615 157 4697.699 157 4799.56 L 157 5199.44 C 157 5301.301 74.301 5384 -27.56 5384 L -427.44 5384 C -529.301 5384 -612 5301.301 -612 5199.44 L -612 4799.56 C -612 4697.699 -529.301 4615 -427.44 4615 Z" style="stroke:none;fill:#000000;stroke-linecap:square;stroke-miterlimit:2;"/><path d="M -427.44 4615 L -27.56 4615 C 74.301 4615 157 4697.699 157 4799.56 L 157 5199.44 C 157 5301.301 74.301 5384 -27.56 5384 L -427.44 5384 C -529.301 5384 -612 5301.301 -612 5199.44 L -612 4799.56 C -612 4697.699 -529.301 4615 -427.44 4615 Z" style="fill:none;stroke:#000000;stroke-width:40;stroke-linecap:square;stroke-miterlimit:2;"/></g><path d=" M -3249.427 1926 L -3248.427 1837 Q -3251.952 1775 -3324.427 1775 C -3368.132 1775 -3401.854 1812.5 -3401.854 1847 C -3401.854 1881.5 -3384.594 1926 -3331.053 1926 Q -3296.553 1926 -3248.427 1926" fill="transparent" vector-effect="non-scaling-stroke" stroke-width="40" stroke="rgb(0,0,0)" stroke-linejoin="miter" stroke-linecap="square" stroke-miterlimit="3"/><path d=" M -3949.427 3376 L -3948.427 3287 Q -3951.952 3225 -4024.427 3225 C -4068.132 3225 -4101.854 3262.5 -4101.854 3297 C -4101.854 3331.5 -4084.594 3376 -4031.053 3376 Q -3996.553 3376 -3948.427 3376" fill="none" vector-effect="non-scaling-stroke" stroke-width="40" stroke="rgb(255,255,255)" stroke-linejoin="miter" stroke-linecap="square" stroke-miterlimit="3"/><path d=" M -3949.427 4926 L -3948.427 4837 Q -3951.952 4775 -4024.427 4775 C -4068.132 4775 -4101.854 4812.5 -4101.854 4847 C -4101.854 4881.5 -4084.594 4926 -4031.053 4926 Q -3996.553 4926 -3948.427 4926" fill="none" vector-effect="non-scaling-stroke" stroke-width="40" stroke="rgb(0,0,0)" stroke-linejoin="miter" stroke-linecap="square" stroke-miterlimit="3"/><path d=" M -1106 196.573 L -1106 329.573 L -1195 329.573 Q -1257 333.098 -1257 405.573 C -1257 449.277 -1219.5 483 -1185 483 C -1150.5 483 -1106 465.74 -1106 412.199 Q -1106 377.699 -1106 329.573" fill="none" vector-effect="non-scaling-stroke" stroke-width="40" stroke="rgb(0,0,0)" stroke-linejoin="miter" stroke-linecap="square" stroke-miterlimit="3"/><path d=" M -1106 1946.573 L -1106 2079.573 L -1195 2079.573 Q -1257 2083.098 -1257 2155.573 C -1257 2199.277 -1219.5 2233 -1185 2233 C -1150.5 2233 -1106 2215.74 -1106 2162.199 Q -1106 2127.699 -1106 2079.573" fill="none" vector-effect="non-scaling-stroke" stroke-width="40" stroke="rgb(0,0,0)" stroke-linejoin="miter" stroke-linecap="square" stroke-miterlimit="3"/><path d=" M -297.854 3396.573 L -297.854 3529.573 L -386.854 3529.573 Q -448.854 3533.098 -448.854 3605.573 C -448.854 3649.277 -411.354 3683 -376.854 3683 C -342.354 3683 -297.854 3665.74 -297.854 3612.199 Q -297.854 3577.699 -297.854 3529.573" fill="none" vector-effect="non-scaling-stroke" stroke-width="40" stroke="rgb(255,255,255)" stroke-linejoin="miter" stroke-linecap="square" stroke-miterlimit="3"/><path d=" M -297.854 4946.573 L -297.854 5079.573 L -386.854 5079.573 Q -448.854 5083.098 -448.854 5155.573 C -448.854 5199.277 -411.354 5233 -376.854 5233 C -342.354 5233 -297.854 5215.74 -297.854 5162.199 Q -297.854 5127.699 -297.854 5079.573" fill="none" vector-effect="non-scaling-stroke" stroke-width="40" stroke="rgb(0,0,0)" stroke-linejoin="miter" stroke-linecap="square" stroke-miterlimit="3"/><path d=" M -2234 196.573 L -2234 329.573 L -2323 329.573 Q -2385 333.098 -2385 405.573 C -2385 449.277 -2347.5 483 -2313 483 C -2278.5 483 -2234 465.74 -2234 412.199 Q -2234 377.699 -2234 329.573" fill="none" vector-effect="non-scaling-stroke" stroke-width="40" stroke="rgb(0,0,0)" stroke-linejoin="miter" stroke-linecap="square" stroke-miterlimit="3"/><path d=" M -2234 1946.573 L -2234 2079.573 L -2323 2079.573 Q -2385 2083.098 -2385 2155.573 C -2385 2199.277 -2347.5 2233 -2313 2233 C -2278.5 2233 -2234 2215.74 -2234 2162.199 Q -2234 2127.699 -2234 2079.573" fill="none" vector-effect="non-scaling-stroke" stroke-width="40" stroke="rgb(0,0,0)" stroke-linejoin="miter" stroke-linecap="square" stroke-miterlimit="3"/><path d=" M -2080 3396.573 L -2080 3529.573 L -2169 3529.573 Q -2231 3533.098 -2231 3605.573 C -2231 3649.277 -2193.5 3683 -2159 3683 C -2124.5 3683 -2080 3665.74 -2080 3612.199 Q -2080 3577.699 -2080 3529.573" fill="none" vector-effect="non-scaling-stroke" stroke-width="40" stroke="rgb(255,255,255)" stroke-linejoin="miter" stroke-linecap="square" stroke-miterlimit="3"/><path d=" M -2080 4946.573 L -2080 5079.573 L -2169 5079.573 Q -2231 5083.098 -2231 5155.573 C -2231 5199.277 -2193.5 5233 -2159 5233 C -2124.5 5233 -2080 5215.74 -2080 5162.199 Q -2080 5127.699 -2080 5079.573" fill="none" vector-effect="non-scaling-stroke" stroke-width="40" stroke="rgb(0,0,0)" stroke-linejoin="miter" stroke-linecap="square" stroke-miterlimit="3"/><path d=" M -6194.345 7213.573 L -6194.345 7346.573 L -6283.345 7346.573 Q -6345.345 7350.098 -6345.345 7422.573 C -6345.345 7466.277 -6307.845 7500 -6273.345 7500 C -6238.845 7500 -6194.345 7482.74 -6194.345 7429.199 Q -6194.345 7394.699 -6194.345 7346.573" fill="none" vector-effect="non-scaling-stroke" stroke-width="40" stroke="rgb(0,0,0)" stroke-linejoin="miter" stroke-linecap="square" stroke-miterlimit="3"/><path d=" M -1698.146 7213.573 L -1698.146 7346.573 L -1787.146 7346.573 Q -1849.146 7350.098 -1849.146 7422.573 C -1849.146 7466.277 -1811.646 7500 -1777.146 7500 C -1742.646 7500 -1698.146 7482.74 -1698.146 7429.199 Q -1698.146 7394.699 -1698.146 7346.573" fill="none" vector-effect="non-scaling-stroke" stroke-width="40" stroke="rgb(0,0,0)" stroke-linejoin="miter" stroke-linecap="square" stroke-miterlimit="3"/><path d=" M 2054 7213.573 L 2054 7346.573 L 1965 7346.573 Q 1903 7350.098 1903 7422.573 C 1903 7466.277 1940.5 7500 1975 7500 C 2009.5 7500 2054 7482.74 2054 7429.199 Q 2054 7394.699 2054 7346.573" fill="none" vector-effect="non-scaling-stroke" stroke-width="40" stroke="rgb(0,0,0)" stroke-linejoin="miter" stroke-linecap="square" stroke-miterlimit="3"/><path d=" M -3250.854 196.573 L -3250.854 329.573 L -3339.854 329.573 Q -3401.854 333.098 -3401.854 405.573 C -3401.854 449.277 -3364.354 483 -3329.854 483 C -3295.354 483 -3250.854 465.74 -3250.854 412.199 Q -3250.854 377.699 -3250.854 329.573" fill="none" vector-effect="non-scaling-stroke" stroke-width="40" stroke="rgb(0,0,0)" stroke-linejoin="miter" stroke-linecap="square" stroke-miterlimit="3"/><path d=" M -3250.854 1946.573 L -3250.854 2079.573 L -3339.854 2079.573 Q -3401.854 2083.098 -3401.854 2155.573 C -3401.854 2199.277 -3364.354 2233 -3329.854 2233 C -3295.354 2233 -3250.854 2215.74 -3250.854 2162.199 Q -3250.854 2127.699 -3250.854 2079.573" fill="none" vector-effect="non-scaling-stroke" stroke-width="40" stroke="rgb(0,0,0)" stroke-linejoin="miter" stroke-linecap="square" stroke-miterlimit="3"/><path d=" M -3950.854 3396.573 L -3950.854 3529.573 L -4039.854 3529.573 Q -4101.854 3533.098 -4101.854 3605.573 C -4101.854 3649.277 -4064.354 3683 -4029.854 3683 C -3995.354 3683 -3950.854 3665.74 -3950.854 3612.199 Q -3950.854 3577.699 -3950.854 3529.573" fill="none" vector-effect="non-scaling-stroke" stroke-width="40" stroke="rgb(255,255,255)" stroke-linejoin="miter" stroke-linecap="square" stroke-miterlimit="3"/><path d=" M -3950.854 4946.573 L -3950.854 5079.573 L -4039.854 5079.573 Q -4101.854 5083.098 -4101.854 5155.573 C -4101.854 5199.277 -4064.354 5233 -4029.854 5233 C -3995.354 5233 -3950.854 5215.74 -3950.854 5162.199 Q -3950.854 5127.699 -3950.854 5079.573" fill="none" vector-effect="non-scaling-stroke" stroke-width="40" stroke="rgb(0,0,0)" stroke-linejoin="miter" stroke-linecap="square" stroke-miterlimit="3"/><path d=" M -950.146 311.427 L -950.146 178.427 L -861.146 178.427 Q -799.146 174.902 -799.146 102.427 C -799.146 58.723 -836.646 25 -871.146 25 C -905.646 25 -950.146 42.26 -950.146 95.801 Q -950.146 130.301 -950.146 178.427" fill="none" vector-effect="non-scaling-stroke" stroke-width="40" stroke="rgb(0,0,0)" stroke-linejoin="miter" stroke-linecap="square" stroke-miterlimit="3"/><path d=" M -861.146 1928.427 Q -799.146 1924.902 -799.146 1852.427 C -799.146 1808.723 -836.646 1775 -871.146 1775 C -905.646 1775 -950.146 1792.26 -950.146 1845.801 Q -950.146 1880.301 -950.146 2078.96" fill="none" vector-effect="non-scaling-stroke" stroke-width="40" stroke="rgb(0,0,0)" stroke-linejoin="miter" stroke-linecap="square" stroke-miterlimit="3"/><path d=" M -53 3378.427 Q 9 3374.902 9 3302.427 C 9 3258.723 -28.5 3225 -63 3225 C -97.5 3225 -142 3242.26 -142 3295.801 Q -142 3330.301 -142 3528.96" fill="none" vector-effect="non-scaling-stroke" stroke-width="40" stroke="rgb(255,255,255)" stroke-linejoin="miter" stroke-linecap="square" stroke-miterlimit="3"/><path d=" M -53 4928.427 Q 9 4924.902 9 4852.427 C 9 4808.723 -28.5 4775 -63 4775 C -97.5 4775 -142 4792.26 -142 4845.801 Q -142 4880.301 -142 5078.96" fill="none" vector-effect="non-scaling-stroke" stroke-width="40" stroke="rgb(0,0,0)" stroke-linejoin="miter" stroke-linecap="square" stroke-miterlimit="3"/><path d=" M -2078.146 311.427 L -2078.146 178.427 L -1989.146 178.427 Q -1927.146 174.902 -1927.146 102.427 C -1927.146 58.723 -1964.646 25 -1999.146 25 C -2033.646 25 -2078.146 42.26 -2078.146 95.801 Q -2078.146 130.301 -2078.146 178.427" fill="none" vector-effect="non-scaling-stroke" stroke-width="40" stroke="rgb(0,0,0)" stroke-linejoin="miter" stroke-linecap="square" stroke-miterlimit="3"/><path d=" M -1989.146 1928.427 Q -1927.146 1924.902 -1927.146 1852.427 C -1927.146 1808.723 -1964.646 1775 -1999.146 1775 C -2033.646 1775 -2078.146 1792.26 -2078.146 1845.801 Q -2078.146 1880.301 -2078.146 2080" fill="none" vector-effect="non-scaling-stroke" stroke-width="40" stroke="rgb(0,0,0)" stroke-linejoin="miter" stroke-linecap="square" stroke-miterlimit="3"/><path d=" M -1835.146 3378.427 Q -1773.146 3374.902 -1773.146 3302.427 C -1773.146 3258.723 -1810.646 3225 -1845.146 3225 C -1879.646 3225 -1924.146 3242.26 -1924.146 3295.801 Q -1924.146 3330.301 -1924.146 3530" fill="none" vector-effect="non-scaling-stroke" stroke-width="40" stroke="rgb(255,255,255)" stroke-linejoin="miter" stroke-linecap="square" stroke-miterlimit="3"/><path d=" M -1835.146 4928.427 Q -1773.146 4924.902 -1773.146 4852.427 C -1773.146 4808.723 -1810.646 4775 -1845.146 4775 C -1879.646 4775 -1924.146 4792.26 -1924.146 4845.801 Q -1924.146 4880.301 -1924.146 5080" fill="none" vector-effect="non-scaling-stroke" stroke-width="40" stroke="rgb(0,0,0)" stroke-linejoin="miter" stroke-linecap="square" stroke-miterlimit="3"/><path d=" M -5949.491 7195.427 Q -5887.491 7191.902 -5887.491 7119.427 C -5887.491 7075.723 -5924.991 7042 -5959.491 7042 C -5993.991 7042 -6038.491 7059.26 -6038.491 7112.801 Q -6038.491 7147.301 -6038.491 7347" fill="none" vector-effect="non-scaling-stroke" stroke-width="40" stroke="rgb(0,0,0)" stroke-linejoin="miter" stroke-linecap="square" stroke-miterlimit="3"/><path d=" M -1453.292 7195.427 Q -1391.292 7191.902 -1391.292 7119.427 C -1391.292 7075.723 -1428.792 7042 -1463.292 7042 C -1497.792 7042 -1542.292 7059.26 -1542.292 7112.801 Q -1542.292 7147.301 -1542.292 7347" fill="none" vector-effect="non-scaling-stroke" stroke-width="40" stroke="rgb(0,0,0)" stroke-linejoin="miter" stroke-linecap="square" stroke-miterlimit="3"/><path d=" M 2298.854 7195.427 Q 2360.854 7191.902 2360.854 7119.427 C 2360.854 7075.723 2323.354 7042 2288.854 7042 C 2254.354 7042 2209.854 7059.26 2209.854 7112.801 Q 2209.854 7147.301 2209.854 7347" fill="none" vector-effect="non-scaling-stroke" stroke-width="40" stroke="rgb(0,0,0)" stroke-linejoin="miter" stroke-linecap="square" stroke-miterlimit="3"/><path d=" M -3095 311.427 L -3095 178.427 L -3006 178.427 Q -2944 174.902 -2944 102.427 C -2944 58.723 -2981.5 25 -3016 25 C -3050.5 25 -3095 42.26 -3095 95.801 Q -3095 130.301 -3095 178.427" fill="none" vector-effect="non-scaling-stroke" stroke-width="40" stroke="rgb(0,0,0)" stroke-linejoin="miter" stroke-linecap="square" stroke-miterlimit="3"/><path d=" M -3006 1928.427 Q -2944 1924.902 -2944 1852.427 C -2944 1808.723 -2981.5 1775 -3016 1775 C -3050.5 1775 -3095 1792.26 -3095 1845.801 Q -3095 2031.935 -3095 2080.061" fill="none" vector-effect="non-scaling-stroke" stroke-width="40" stroke="rgb(0,0,0)" stroke-linejoin="miter" stroke-linecap="square" stroke-miterlimit="3"/><path d=" M -3706 3378.427 Q -3644 3374.902 -3644 3302.427 C -3644 3258.723 -3681.5 3225 -3716 3225 C -3750.5 3225 -3795 3242.26 -3795 3295.801 Q -3795 3481.935 -3795 3530.061" fill="none" vector-effect="non-scaling-stroke" stroke-width="40" stroke="rgb(255,255,255)" stroke-linejoin="miter" stroke-linecap="square" stroke-miterlimit="3"/><path d=" M -3706 4928.427 Q -3644 4924.902 -3644 4852.427 C -3644 4808.723 -3681.5 4775 -3716 4775 C -3750.5 4775 -3795 4792.26 -3795 4845.801 Q -3795 5031.935 -3795 5080.061" fill="none" vector-effect="non-scaling-stroke" stroke-width="40" stroke="rgb(0,0,0)" stroke-linejoin="miter" stroke-linecap="square" stroke-miterlimit="3"/><path d=" M -5472.254 7173.35 L -5472.254 7173.35 Q -5501.054 7173.35 -5515.604 7186.4 L -5515.604 7186.4 L -5515.604 7186.4 Q -5530.154 7199.45 -5530.154 7224.35 L -5530.154 7224.35 L -5530.154 7248.35 L -5434.154 7248.35 L -5434.154 7274.15 L -5530.154 7274.15 L -5530.154 7359.05 L -5560.154 7359.05 L -5560.154 7224.05 L -5560.154 7224.05 Q -5560.154 7187.75 -5537.204 7167.2 L -5537.204 7167.2 L -5537.204 7167.2 Q -5514.254 7146.65 -5473.154 7146.65 L -5473.154 7146.65 L -5473.154 7146.65 Q -5455.154 7146.65 -5439.554 7150.7 L -5439.554 7150.7 L -5439.554 7150.7 Q -5423.954 7154.75 -5412.554 7162.55 L -5412.554 7162.55 L -5422.454 7187.45 L -5422.454 7187.45 Q -5442.554 7173.35 -5472.254 7173.35 L -5472.254 7173.35 L -5472.254 7173.35 Z  M -5336.754 7359.05 L -5336.754 7200.05 L -5307.954 7200.05 L -5307.954 7359.05 L -5336.754 7359.05 L -5336.754 7359.05 Z  M -5322.354 7169.45 L -5322.354 7169.45 Q -5330.754 7169.45 -5336.304 7164.05 L -5336.304 7164.05 L -5336.304 7164.05 Q -5341.854 7158.65 -5341.854 7150.85 L -5341.854 7150.85 L -5341.854 7150.85 Q -5341.854 7143.05 -5336.304 7137.5 L -5336.304 7137.5 L -5336.304 7137.5 Q -5330.754 7131.95 -5322.354 7131.95 L -5322.354 7131.95 L -5322.354 7131.95 Q -5313.954 7131.95 -5308.404 7137.2 L -5308.404 7137.2 L -5308.404 7137.2 Q -5302.854 7142.45 -5302.854 7150.25 L -5302.854 7150.25 L -5302.854 7150.25 Q -5302.854 7158.35 -5308.404 7163.9 L -5308.404 7163.9 L -5308.404 7163.9 Q -5313.954 7169.45 -5322.354 7169.45 L -5322.354 7169.45 L -5322.354 7169.45 Z  M -5131.354 7335.65 L -5131.354 7335.65 Q -5102.854 7335.65 -5085.454 7316.45 L -5085.454 7316.45 L -5069.854 7335.05 L -5069.854 7335.05 Q -5080.354 7347.65 -5096.404 7354.25 L -5096.404 7354.25 L -5096.404 7354.25 Q -5112.454 7360.85 -5132.254 7360.85 L -5132.254 7360.85 L -5132.254 7360.85 Q -5157.454 7360.85 -5176.954 7350.5 L -5176.954 7350.5 L -5176.954 7350.5 Q -5196.454 7340.15 -5207.104 7321.55 L -5207.104 7321.55 L -5207.104 7321.55 Q -5217.754 7302.95 -5217.754 7279.55 L -5217.754 7279.55 L -5217.754 7279.55 Q -5217.754 7256.45 -5207.404 7237.85 L -5207.404 7237.85 L -5207.404 7237.85 Q -5197.054 7219.25 -5178.904 7208.9 L -5178.904 7208.9 L -5178.904 7208.9 Q -5160.754 7198.55 -5137.954 7198.55 L -5137.954 7198.55 L -5137.954 7198.55 Q -5116.354 7198.55 -5098.654 7208.3 L -5098.654 7208.3 L -5098.654 7208.3 Q -5080.954 7218.05 -5070.454 7235.75 L -5070.454 7235.75 L -5070.454 7235.75 Q -5059.954 7253.45 -5059.654 7276.55 L -5059.654 7276.55 L -5185.954 7301.15 L -5185.954 7301.15 Q -5179.954 7317.65 -5165.704 7326.65 L -5165.704 7326.65 L -5165.704 7326.65 Q -5151.454 7335.65 -5131.354 7335.65 L -5131.354 7335.65 L -5131.354 7335.65 Z  M -5137.954 7222.85 L -5137.954 7222.85 Q -5152.954 7222.85 -5164.804 7229.75 L -5164.804 7229.75 L -5164.804 7229.75 Q -5176.654 7236.65 -5183.254 7249.1 L -5183.254 7249.1 L -5183.254 7249.1 Q -5189.854 7261.55 -5189.854 7278.05 L -5189.854 7278.05 L -5189.854 7281.05 L -5088.154 7261.85 L -5088.154 7261.85 Q -5092.054 7244.45 -5105.554 7233.65 L -5105.554 7233.65 L -5105.554 7233.65 Q -5119.054 7222.85 -5137.954 7222.85 L -5137.954 7222.85 L -5137.954 7222.85 Z  M -4921.154 7360.85 L -4921.154 7360.85 Q -4944.254 7360.85 -4956.854 7348.1 L -4956.854 7348.1 L -4956.854 7348.1 Q -4969.454 7335.35 -4969.454 7312.25 L -4969.454 7312.25 L -4969.454 7136.45 L -4940.654 7136.45 L -4940.654 7309.85 L -4940.654 7309.85 Q -4940.654 7322.75 -4934.504 7329.65 L -4934.504 7329.65 L -4934.504 7329.65 Q -4928.354 7336.55 -4916.054 7336.55 L -4916.054 7336.55 L -4916.054 7336.55 Q -4908.554 7336.55 -4901.954 7333.55 L -4901.954 7333.55 L -4900.454 7357.25 L -4900.454 7357.25 Q -4910.354 7360.85 -4921.154 7360.85 L -4921.154 7360.85 L -4921.154 7360.85 Z  M -4704.954 7136.45 L -4676.154 7136.45 L -4676.154 7359.05 L -4703.754 7359.05 L -4703.754 7333.85 L -4703.754 7333.85 Q -4713.354 7347.05 -4728.054 7353.95 L -4728.054 7353.95 L -4728.054 7353.95 Q -4742.754 7360.85 -4760.454 7360.85 L -4760.454 7360.85 L -4760.454 7360.85 Q -4783.554 7360.85 -4801.854 7350.65 L -4801.854 7350.65 L -4801.854 7350.65 Q -4820.154 7340.45 -4830.504 7322 L -4830.504 7322 L -4830.504 7322 Q -4840.854 7303.55 -4840.854 7279.55 L -4840.854 7279.55 L -4840.854 7279.55 Q -4840.854 7255.55 -4830.504 7237.25 L -4830.504 7237.25 L -4830.504 7237.25 Q -4820.154 7218.95 -4801.854 7208.75 L -4801.854 7208.75 L -4801.854 7208.75 Q -4783.554 7198.55 -4760.454 7198.55 L -4760.454 7198.55 L -4760.454 7198.55 Q -4743.354 7198.55 -4728.954 7205 L -4728.954 7205 L -4728.954 7205 Q -4714.554 7211.45 -4704.954 7224.05 L -4704.954 7224.05 L -4704.954 7136.45 L -4704.954 7136.45 Z  M -4758.054 7335.65 L -4758.054 7335.65 Q -4743.054 7335.65 -4730.754 7328.6 L -4730.754 7328.6 L -4730.754 7328.6 Q -4718.454 7321.55 -4711.554 7308.8 L -4711.554 7308.8 L -4711.554 7308.8 Q -4704.654 7296.05 -4704.654 7279.55 L -4704.654 7279.55 L -4704.654 7279.55 Q -4704.654 7263.05 -4711.554 7250.3 L -4711.554 7250.3 L -4711.554 7250.3 Q -4718.454 7237.55 -4730.754 7230.65 L -4730.754 7230.65 L -4730.754 7230.65 Q -4743.054 7223.75 -4758.054 7223.75 L -4758.054 7223.75 L -4758.054 7223.75 Q -4773.354 7223.75 -4785.504 7230.65 L -4785.504 7230.65 L -4785.504 7230.65 Q -4797.654 7237.55 -4804.704 7250.3 L -4804.704 7250.3 L -4804.704 7250.3 Q -4811.754 7263.05 -4811.754 7279.55 L -4811.754 7279.55 L -4811.754 7279.55 Q -4811.754 7296.05 -4804.704 7308.8 L -4804.704 7308.8 L -4804.704 7308.8 Q -4797.654 7321.55 -4785.504 7328.6 L -4785.504 7328.6 L -4785.504 7328.6 Q -4773.354 7335.65 -4758.054 7335.65 L -4758.054 7335.65 L -4758.054 7335.65 Z  M -4469.554 7146.65 L -4469.554 7146.65 Q -4431.754 7146.65 -4410.454 7169.45 L -4410.454 7169.45 L -4410.454 7169.45 Q -4389.154 7192.25 -4389.154 7234.55 L -4389.154 7234.55 L -4389.154 7359.05 L -4418.854 7359.05 L -4418.854 7235.45 L -4418.854 7235.45 Q -4418.854 7204.85 -4433.854 7189.1 L -4433.854 7189.1 L -4433.854 7189.1 Q -4448.854 7173.35 -4475.554 7173.35 L -4475.554 7173.35 L -4475.554 7173.35 Q -4504.354 7173.35 -4520.854 7190.15 L -4520.854 7190.15 L -4520.854 7190.15 Q -4537.354 7206.95 -4537.354 7239.95 L -4537.354 7239.95 L -4537.354 7359.05 L -4567.354 7359.05 L -4567.354 7149.05 L -4538.554 7149.05 L -4538.554 7178.75 L -4538.554 7178.75 Q -4517.254 7146.65 -4469.554 7146.65 L -4469.554 7146.65 L -4469.554 7146.65 Z  M -4214.054 7360.85 L -4214.054 7360.85 Q -4237.754 7360.85 -4256.654 7350.35 L -4256.654 7350.35 L -4256.654 7350.35 Q -4275.554 7339.85 -4286.204 7321.4 L -4286.204 7321.4 L -4286.204 7321.4 Q -4296.854 7302.95 -4296.854 7279.55 L -4296.854 7279.55 L -4296.854 7279.55 Q -4296.854 7256.15 -4286.204 7237.7 L -4286.204 7237.7 L -4286.204 7237.7 Q -4275.554 7219.25 -4256.654 7208.9 L -4256.654 7208.9 L -4256.654 7208.9 Q -4237.754 7198.55 -4214.054 7198.55 L -4214.054 7198.55 L -4214.054 7198.55 Q -4190.354 7198.55 -4171.604 7208.9 L -4171.604 7208.9 L -4171.604 7208.9 Q -4152.854 7219.25 -4142.204 7237.7 L -4142.204 7237.7 L -4142.204 7237.7 Q -4131.554 7256.15 -4131.554 7279.55 L -4131.554 7279.55 L -4131.554 7279.55 Q -4131.554 7302.95 -4142.204 7321.4 L -4142.204 7321.4 L -4142.204 7321.4 Q -4152.854 7339.85 -4171.604 7350.35 L -4171.604 7350.35 L -4171.604 7350.35 Q -4190.354 7360.85 -4214.054 7360.85 L -4214.054 7360.85 L -4214.054 7360.85 Z  M -4214.054 7335.65 L -4214.054 7335.65 Q -4198.754 7335.65 -4186.604 7328.6 L -4186.604 7328.6 L -4186.604 7328.6 Q -4174.454 7321.55 -4167.554 7308.8 L -4167.554 7308.8 L -4167.554 7308.8 Q -4160.654 7296.05 -4160.654 7279.55 L -4160.654 7279.55 L -4160.654 7279.55 Q -4160.654 7263.05 -4167.554 7250.3 L -4167.554 7250.3 L -4167.554 7250.3 Q -4174.454 7237.55 -4186.604 7230.65 L -4186.604 7230.65 L -4186.604 7230.65 Q -4198.754 7223.75 -4214.054 7223.75 L -4214.054 7223.75 L -4214.054 7223.75 Q -4229.354 7223.75 -4241.504 7230.65 L -4241.504 7230.65 L -4241.504 7230.65 Q -4253.654 7237.55 -4260.704 7250.3 L -4260.704 7250.3 L -4260.704 7250.3 Q -4267.754 7263.05 -4267.754 7279.55 L -4267.754 7279.55 L -4267.754 7279.55 Q -4267.754 7296.05 -4260.704 7308.8 L -4260.704 7308.8 L -4260.704 7308.8 Q -4253.654 7321.55 -4241.504 7328.6 L -4241.504 7328.6 L -4241.504 7328.6 Q -4229.354 7335.65 -4214.054 7335.65 L -4214.054 7335.65 L -4214.054 7335.65 Z  M -3966.954 7329.05 L -3957.954 7349.75 L -3957.954 7349.75 Q -3964.254 7355.15 -3973.554 7358 L -3973.554 7358 L -3973.554 7358 Q -3982.854 7360.85 -3992.754 7360.85 L -3992.754 7360.85 L -3992.754 7360.85 Q -4016.754 7360.85 -4029.954 7347.95 L -4029.954 7347.95 L -4029.954 7347.95 Q -4043.154 7335.05 -4043.154 7311.05 L -4043.154 7311.05 L -4043.154 7165.25 L -4014.354 7165.25 L -4014.354 7200.05 L -3968.754 7200.05 L -3968.754 7223.75 L -4014.354 7223.75 L -4014.354 7309.85 L -4014.354 7309.85 Q -4014.354 7322.75 -4007.904 7329.65 L -4007.904 7329.65 L -4007.904 7329.65 Q -4001.454 7336.55 -3989.454 7336.55 L -3989.454 7336.55 L -3989.454 7336.55 Q -3976.254 7336.55 -3966.954 7329.05 L -3966.954 7329.05 L -3966.954 7329.05 Z  M -3806.854 7335.65 L -3806.854 7335.65 Q -3778.354 7335.65 -3760.954 7316.45 L -3760.954 7316.45 L -3745.354 7335.05 L -3745.354 7335.05 Q -3755.854 7347.65 -3771.904 7354.25 L -3771.904 7354.25 L -3771.904 7354.25 Q -3787.954 7360.85 -3807.754 7360.85 L -3807.754 7360.85 L -3807.754 7360.85 Q -3832.954 7360.85 -3852.454 7350.5 L -3852.454 7350.5 L -3852.454 7350.5 Q -3871.954 7340.15 -3882.604 7321.55 L -3882.604 7321.55 L -3882.604 7321.55 Q -3893.254 7302.95 -3893.254 7279.55 L -3893.254 7279.55 L -3893.254 7279.55 Q -3893.254 7256.45 -3882.904 7237.85 L -3882.904 7237.85 L -3882.904 7237.85 Q -3872.554 7219.25 -3854.404 7208.9 L -3854.404 7208.9 L -3854.404 7208.9 Q -3836.254 7198.55 -3813.454 7198.55 L -3813.454 7198.55 L -3813.454 7198.55 Q -3791.854 7198.55 -3774.154 7208.3 L -3774.154 7208.3 L -3774.154 7208.3 Q -3756.454 7218.05 -3745.954 7235.75 L -3745.954 7235.75 L -3745.954 7235.75 Q -3735.454 7253.45 -3735.154 7276.55 L -3735.154 7276.55 L -3861.454 7301.15 L -3861.454 7301.15 Q -3855.454 7317.65 -3841.204 7326.65 L -3841.204 7326.65 L -3841.204 7326.65 Q -3826.954 7335.65 -3806.854 7335.65 L -3806.854 7335.65 L -3806.854 7335.65 Z  M -3813.454 7222.85 L -3813.454 7222.85 Q -3828.454 7222.85 -3840.304 7229.75 L -3840.304 7229.75 L -3840.304 7229.75 Q -3852.154 7236.65 -3858.754 7249.1 L -3858.754 7249.1 L -3858.754 7249.1 Q -3865.354 7261.55 -3865.354 7278.05 L -3865.354 7278.05 L -3865.354 7281.05 L -3763.654 7261.85 L -3763.654 7261.85 Q -3767.554 7244.45 -3781.054 7233.65 L -3781.054 7233.65 L -3781.054 7233.65 Q -3794.554 7222.85 -3813.454 7222.85 L -3813.454 7222.85 L -3813.454 7222.85 Z  M -3599.354 7360.85 L -3599.354 7360.85 Q -3618.854 7360.85 -3636.854 7355.6 L -3636.854 7355.6 L -3636.854 7355.6 Q -3654.854 7350.35 -3665.054 7342.25 L -3665.054 7342.25 L -3653.054 7319.45 L -3653.054 7319.45 Q -3642.554 7326.95 -3627.554 7331.45 L -3627.554 7331.45 L -3627.554 7331.45 Q -3612.554 7335.95 -3597.254 7335.95 L -3597.254 7335.95 L -3597.254 7335.95 Q -3559.454 7335.95 -3559.454 7314.35 L -3559.454 7314.35 L -3559.454 7314.35 Q -3559.454 7307.15 -3564.554 7302.95 L -3564.554 7302.95 L -3564.554 7302.95 Q -3569.654 7298.75 -3577.304 7296.8 L -3577.304 7296.8 L -3577.304 7296.8 Q -3584.954 7294.85 -3599.054 7292.45 L -3599.054 7292.45 L -3599.054 7292.45 Q -3618.254 7289.45 -3630.404 7285.55 L -3630.404 7285.55 L -3630.404 7285.55 Q -3642.554 7281.65 -3651.254 7272.35 L -3651.254 7272.35 L -3651.254 7272.35 Q -3659.954 7263.05 -3659.954 7246.25 L -3659.954 7246.25 L -3659.954 7246.25 Q -3659.954 7224.65 -3641.954 7211.6 L -3641.954 7211.6 L -3641.954 7211.6 Q -3623.954 7198.55 -3593.654 7198.55 L -3593.654 7198.55 L -3593.654 7198.55 Q -3577.754 7198.55 -3561.854 7202.45 L -3561.854 7202.45 L -3561.854 7202.45 Q -3545.954 7206.35 -3535.754 7212.95 L -3535.754 7212.95 L -3548.054 7235.75 L -3548.054 7235.75 Q -3567.554 7223.15 -3593.954 7223.15 L -3593.954 7223.15 L -3593.954 7223.15 Q -3612.254 7223.15 -3621.854 7229.15 L -3621.854 7229.15 L -3621.854 7229.15 Q -3631.454 7235.15 -3631.454 7245.05 L -3631.454 7245.05 L -3631.454 7245.05 Q -3631.454 7252.85 -3626.054 7257.35 L -3626.054 7257.35 L -3626.054 7257.35 Q -3620.654 7261.85 -3612.704 7263.95 L -3612.704 7263.95 L -3612.704 7263.95 Q -3604.754 7266.05 -3590.354 7268.75 L -3590.354 7268.75 L -3590.354 7268.75 Q -3571.154 7272.05 -3559.304 7275.8 L -3559.304 7275.8 L -3559.304 7275.8 Q -3547.454 7279.55 -3539.054 7288.55 L -3539.054 7288.55 L -3539.054 7288.55 Q -3530.654 7297.55 -3530.654 7313.75 L -3530.654 7313.75 L -3530.654 7313.75 Q -3530.654 7335.35 -3549.104 7348.1 L -3549.104 7348.1 L -3549.104 7348.1 Q -3567.554 7360.85 -3599.354 7360.85 L -3599.354 7360.85 L -3599.354 7360.85 Z  M -3437.754 7360.85 L -3437.754 7360.85 Q -3446.154 7360.85 -3452.154 7355 L -3452.154 7355 L -3452.154 7355 Q -3458.154 7349.15 -3458.154 7340.15 L -3458.154 7340.15 L -3458.154 7340.15 Q -3458.154 7331.45 -3452.154 7325.6 L -3452.154 7325.6 L -3452.154 7325.6 Q -3446.154 7319.75 -3437.754 7319.75 L -3437.754 7319.75 L -3437.754 7319.75 Q -3429.354 7319.75 -3423.654 7325.45 L -3423.654 7325.45 L -3423.654 7325.45 Q -3417.954 7331.15 -3417.954 7340.15 L -3417.954 7340.15 L -3417.954 7340.15 Q -3417.954 7349.15 -3423.804 7355 L -3423.804 7355 L -3423.804 7355 Q -3429.654 7360.85 -3437.754 7360.85 L -3437.754 7360.85 L -3437.754 7360.85 Z " fill="rgb(0,0,0)"/><path d=" M -964.846 7311.215 L -964.846 7311.215 Q -927.046 7311.215 -905.746 7334.015 L -905.746 7334.015 L -905.746 7334.015 Q -884.446 7356.815 -884.446 7399.115 L -884.446 7399.115 L -884.446 7523.615 L -914.146 7523.615 L -914.146 7400.015 L -914.146 7400.015 Q -914.146 7369.415 -929.146 7353.665 L -929.146 7353.665 L -929.146 7353.665 Q -944.146 7337.915 -970.846 7337.915 L -970.846 7337.915 L -970.846 7337.915 Q -999.646 7337.915 -1016.146 7354.715 L -1016.146 7354.715 L -1016.146 7354.715 Q -1032.646 7371.515 -1032.646 7404.515 L -1032.646 7404.515 L -1032.646 7523.615 L -1062.646 7523.615 L -1062.646 7313.615 L -1033.846 7313.615 L -1033.846 7343.315 L -1033.846 7343.315 Q -1012.546 7311.215 -964.846 7311.215 L -964.846 7311.215 L -964.846 7311.215 Z  M -709.346 7525.415 L -709.346 7525.415 Q -733.046 7525.415 -751.946 7514.915 L -751.946 7514.915 L -751.946 7514.915 Q -770.846 7504.415 -781.496 7485.965 L -781.496 7485.965 L -781.496 7485.965 Q -792.146 7467.515 -792.146 7444.115 L -792.146 7444.115 L -792.146 7444.115 Q -792.146 7420.715 -781.496 7402.265 L -781.496 7402.265 L -781.496 7402.265 Q -770.846 7383.815 -751.946 7373.465 L -751.946 7373.465 L -751.946 7373.465 Q -733.046 7363.115 -709.346 7363.115 L -709.346 7363.115 L -709.346 7363.115 Q -685.646 7363.115 -666.896 7373.465 L -666.896 7373.465 L -666.896 7373.465 Q -648.146 7383.815 -637.496 7402.265 L -637.496 7402.265 L -637.496 7402.265 Q -626.846 7420.715 -626.846 7444.115 L -626.846 7444.115 L -626.846 7444.115 Q -626.846 7467.515 -637.496 7485.965 L -637.496 7485.965 L -637.496 7485.965 Q -648.146 7504.415 -666.896 7514.915 L -666.896 7514.915 L -666.896 7514.915 Q -685.646 7525.415 -709.346 7525.415 L -709.346 7525.415 L -709.346 7525.415 Z  M -709.346 7500.215 L -709.346 7500.215 Q -694.046 7500.215 -681.896 7493.165 L -681.896 7493.165 L -681.896 7493.165 Q -669.746 7486.115 -662.846 7473.365 L -662.846 7473.365 L -662.846 7473.365 Q -655.946 7460.615 -655.946 7444.115 L -655.946 7444.115 L -655.946 7444.115 Q -655.946 7427.615 -662.846 7414.865 L -662.846 7414.865 L -662.846 7414.865 Q -669.746 7402.115 -681.896 7395.215 L -681.896 7395.215 L -681.896 7395.215 Q -694.046 7388.315 -709.346 7388.315 L -709.346 7388.315 L -709.346 7388.315 Q -724.646 7388.315 -736.796 7395.215 L -736.796 7395.215 L -736.796 7395.215 Q -748.946 7402.115 -755.996 7414.865 L -755.996 7414.865 L -755.996 7414.865 Q -763.046 7427.615 -763.046 7444.115 L -763.046 7444.115 L -763.046 7444.115 Q -763.046 7460.615 -755.996 7473.365 L -755.996 7473.365 L -755.996 7473.365 Q -748.946 7486.115 -736.796 7493.165 L -736.796 7493.165 L -736.796 7493.165 Q -724.646 7500.215 -709.346 7500.215 L -709.346 7500.215 L -709.346 7500.215 Z  M -462.246 7493.615 L -453.246 7514.315 L -453.246 7514.315 Q -459.546 7519.715 -468.846 7522.565 L -468.846 7522.565 L -468.846 7522.565 Q -478.146 7525.415 -488.046 7525.415 L -488.046 7525.415 L -488.046 7525.415 Q -512.046 7525.415 -525.246 7512.515 L -525.246 7512.515 L -525.246 7512.515 Q -538.446 7499.615 -538.446 7475.615 L -538.446 7475.615 L -538.446 7329.815 L -509.646 7329.815 L -509.646 7364.615 L -464.046 7364.615 L -464.046 7388.315 L -509.646 7388.315 L -509.646 7474.415 L -509.646 7474.415 Q -509.646 7487.315 -503.196 7494.215 L -503.196 7494.215 L -503.196 7494.215 Q -496.746 7501.115 -484.746 7501.115 L -484.746 7501.115 L -484.746 7501.115 Q -471.546 7501.115 -462.246 7493.615 L -462.246 7493.615 L -462.246 7493.615 Z  M -302.146 7500.215 L -302.146 7500.215 Q -273.646 7500.215 -256.246 7481.015 L -256.246 7481.015 L -240.646 7499.615 L -240.646 7499.615 Q -251.146 7512.215 -267.196 7518.815 L -267.196 7518.815 L -267.196 7518.815 Q -283.246 7525.415 -303.046 7525.415 L -303.046 7525.415 L -303.046 7525.415 Q -328.246 7525.415 -347.746 7515.065 L -347.746 7515.065 L -347.746 7515.065 Q -367.246 7504.715 -377.896 7486.115 L -377.896 7486.115 L -377.896 7486.115 Q -388.546 7467.515 -388.546 7444.115 L -388.546 7444.115 L -388.546 7444.115 Q -388.546 7421.015 -378.196 7402.415 L -378.196 7402.415 L -378.196 7402.415 Q -367.846 7383.815 -349.696 7373.465 L -349.696 7373.465 L -349.696 7373.465 Q -331.546 7363.115 -308.746 7363.115 L -308.746 7363.115 L -308.746 7363.115 Q -287.146 7363.115 -269.446 7372.865 L -269.446 7372.865 L -269.446 7372.865 Q -251.746 7382.615 -241.246 7400.315 L -241.246 7400.315 L -241.246 7400.315 Q -230.746 7418.015 -230.446 7441.115 L -230.446 7441.115 L -356.746 7465.715 L -356.746 7465.715 Q -350.746 7482.215 -336.496 7491.215 L -336.496 7491.215 L -336.496 7491.215 Q -322.246 7500.215 -302.146 7500.215 L -302.146 7500.215 L -302.146 7500.215 Z  M -308.746 7387.415 L -308.746 7387.415 Q -323.746 7387.415 -335.596 7394.315 L -335.596 7394.315 L -335.596 7394.315 Q -347.446 7401.215 -354.046 7413.665 L -354.046 7413.665 L -354.046 7413.665 Q -360.646 7426.115 -360.646 7442.615 L -360.646 7442.615 L -360.646 7445.615 L -258.946 7426.415 L -258.946 7426.415 Q -262.846 7409.015 -276.346 7398.215 L -276.346 7398.215 L -276.346 7398.215 Q -289.846 7387.415 -308.746 7387.415 L -308.746 7387.415 L -308.746 7387.415 Z  M -94.646 7525.415 L -94.646 7525.415 Q -114.146 7525.415 -132.146 7520.165 L -132.146 7520.165 L -132.146 7520.165 Q -150.146 7514.915 -160.346 7506.815 L -160.346 7506.815 L -148.346 7484.015 L -148.346 7484.015 Q -137.846 7491.515 -122.846 7496.015 L -122.846 7496.015 L -122.846 7496.015 Q -107.846 7500.515 -92.546 7500.515 L -92.546 7500.515 L -92.546 7500.515 Q -54.746 7500.515 -54.746 7478.915 L -54.746 7478.915 L -54.746 7478.915 Q -54.746 7471.715 -59.846 7467.515 L -59.846 7467.515 L -59.846 7467.515 Q -64.946 7463.315 -72.596 7461.365 L -72.596 7461.365 L -72.596 7461.365 Q -80.246 7459.415 -94.346 7457.015 L -94.346 7457.015 L -94.346 7457.015 Q -113.546 7454.015 -125.696 7450.115 L -125.696 7450.115 L -125.696 7450.115 Q -137.846 7446.215 -146.546 7436.915 L -146.546 7436.915 L -146.546 7436.915 Q -155.246 7427.615 -155.246 7410.815 L -155.246 7410.815 L -155.246 7410.815 Q -155.246 7389.215 -137.246 7376.165 L -137.246 7376.165 L -137.246 7376.165 Q -119.246 7363.115 -88.946 7363.115 L -88.946 7363.115 L -88.946 7363.115 Q -73.046 7363.115 -57.146 7367.015 L -57.146 7367.015 L -57.146 7367.015 Q -41.246 7370.915 -31.046 7377.515 L -31.046 7377.515 L -43.346 7400.315 L -43.346 7400.315 Q -62.846 7387.715 -89.246 7387.715 L -89.246 7387.715 L -89.246 7387.715 Q -107.546 7387.715 -117.146 7393.715 L -117.146 7393.715 L -117.146 7393.715 Q -126.746 7399.715 -126.746 7409.615 L -126.746 7409.615 L -126.746 7409.615 Q -126.746 7417.415 -121.346 7421.915 L -121.346 7421.915 L -121.346 7421.915 Q -115.946 7426.415 -107.996 7428.515 L -107.996 7428.515 L -107.996 7428.515 Q -100.046 7430.615 -85.646 7433.315 L -85.646 7433.315 L -85.646 7433.315 Q -66.446 7436.615 -54.596 7440.365 L -54.596 7440.365 L -54.596 7440.365 Q -42.746 7444.115 -34.346 7453.115 L -34.346 7453.115 L -34.346 7453.115 Q -25.946 7462.115 -25.946 7478.315 L -25.946 7478.315 L -25.946 7478.315 Q -25.946 7499.915 -44.396 7512.665 L -44.396 7512.665 L -44.396 7512.665 Q -62.846 7525.415 -94.646 7525.415 L -94.646 7525.415 L -94.646 7525.415 Z  M 66.954 7525.415 L 66.954 7525.415 Q 58.554 7525.415 52.554 7519.565 L 52.554 7519.565 L 52.554 7519.565 Q 46.554 7513.715 46.554 7504.715 L 46.554 7504.715 L 46.554 7504.715 Q 46.554 7496.015 52.554 7490.165 L 52.554 7490.165 L 52.554 7490.165 Q 58.554 7484.315 66.954 7484.315 L 66.954 7484.315 L 66.954 7484.315 Q 75.354 7484.315 81.054 7490.015 L 81.054 7490.015 L 81.054 7490.015 Q 86.754 7495.715 86.754 7504.715 L 86.754 7504.715 L 86.754 7504.715 Q 86.754 7513.715 80.904 7519.565 L 80.904 7519.565 L 80.904 7519.565 Q 75.054 7525.415 66.954 7525.415 L 66.954 7525.415 L 66.954 7525.415 Z  M -976.546 7045.355 L -976.546 7045.355 Q -1005.346 7045.355 -1019.896 7058.405 L -1019.896 7058.405 L -1019.896 7058.405 Q -1034.446 7071.455 -1034.446 7096.355 L -1034.446 7096.355 L -1034.446 7120.355 L -938.446 7120.355 L -938.446 7146.155 L -1034.446 7146.155 L -1034.446 7231.055 L -1064.446 7231.055 L -1064.446 7096.055 L -1064.446 7096.055 Q -1064.446 7059.755 -1041.496 7039.205 L -1041.496 7039.205 L -1041.496 7039.205 Q -1018.546 7018.655 -977.446 7018.655 L -977.446 7018.655 L -977.446 7018.655 Q -959.446 7018.655 -943.846 7022.705 L -943.846 7022.705 L -943.846 7022.705 Q -928.246 7026.755 -916.846 7034.555 L -916.846 7034.555 L -926.746 7059.455 L -926.746 7059.455 Q -946.846 7045.355 -976.546 7045.355 L -976.546 7045.355 L -976.546 7045.355 Z  M -841.046 7231.055 L -841.046 7072.055 L -812.246 7072.055 L -812.246 7231.055 L -841.046 7231.055 L -841.046 7231.055 Z  M -826.646 7041.455 L -826.646 7041.455 Q -835.046 7041.455 -840.596 7036.055 L -840.596 7036.055 L -840.596 7036.055 Q -846.146 7030.655 -846.146 7022.855 L -846.146 7022.855 L -846.146 7022.855 Q -846.146 7015.055 -840.596 7009.505 L -840.596 7009.505 L -840.596 7009.505 Q -835.046 7003.955 -826.646 7003.955 L -826.646 7003.955 L -826.646 7003.955 Q -818.246 7003.955 -812.696 7009.205 L -812.696 7009.205 L -812.696 7009.205 Q -807.146 7014.455 -807.146 7022.255 L -807.146 7022.255 L -807.146 7022.255 Q -807.146 7030.355 -812.696 7035.905 L -812.696 7035.905 L -812.696 7035.905 Q -818.246 7041.455 -826.646 7041.455 L -826.646 7041.455 L -826.646 7041.455 Z  M -635.646 7207.655 L -635.646 7207.655 Q -607.146 7207.655 -589.746 7188.455 L -589.746 7188.455 L -574.146 7207.055 L -574.146 7207.055 Q -584.646 7219.655 -600.696 7226.255 L -600.696 7226.255 L -600.696 7226.255 Q -616.746 7232.855 -636.546 7232.855 L -636.546 7232.855 L -636.546 7232.855 Q -661.746 7232.855 -681.246 7222.505 L -681.246 7222.505 L -681.246 7222.505 Q -700.746 7212.155 -711.396 7193.555 L -711.396 7193.555 L -711.396 7193.555 Q -722.046 7174.955 -722.046 7151.555 L -722.046 7151.555 L -722.046 7151.555 Q -722.046 7128.455 -711.696 7109.855 L -711.696 7109.855 L -711.696 7109.855 Q -701.346 7091.255 -683.196 7080.905 L -683.196 7080.905 L -683.196 7080.905 Q -665.046 7070.555 -642.246 7070.555 L -642.246 7070.555 L -642.246 7070.555 Q -620.646 7070.555 -602.946 7080.305 L -602.946 7080.305 L -602.946 7080.305 Q -585.246 7090.055 -574.746 7107.755 L -574.746 7107.755 L -574.746 7107.755 Q -564.246 7125.455 -563.946 7148.555 L -563.946 7148.555 L -690.246 7173.155 L -690.246 7173.155 Q -684.246 7189.655 -669.996 7198.655 L -669.996 7198.655 L -669.996 7198.655 Q -655.746 7207.655 -635.646 7207.655 L -635.646 7207.655 L -635.646 7207.655 Z  M -642.246 7094.855 L -642.246 7094.855 Q -657.246 7094.855 -669.096 7101.755 L -669.096 7101.755 L -669.096 7101.755 Q -680.946 7108.655 -687.546 7121.105 L -687.546 7121.105 L -687.546 7121.105 Q -694.146 7133.555 -694.146 7150.055 L -694.146 7150.055 L -694.146 7153.055 L -592.446 7133.855 L -592.446 7133.855 Q -596.346 7116.455 -609.846 7105.655 L -609.846 7105.655 L -609.846 7105.655 Q -623.346 7094.855 -642.246 7094.855 L -642.246 7094.855 L -642.246 7094.855 Z  M -425.446 7232.855 L -425.446 7232.855 Q -448.546 7232.855 -461.146 7220.105 L -461.146 7220.105 L -461.146 7220.105 Q -473.746 7207.355 -473.746 7184.255 L -473.746 7184.255 L -473.746 7008.455 L -444.946 7008.455 L -444.946 7181.855 L -444.946 7181.855 Q -444.946 7194.755 -438.796 7201.655 L -438.796 7201.655 L -438.796 7201.655 Q -432.646 7208.555 -420.346 7208.555 L -420.346 7208.555 L -420.346 7208.555 Q -412.846 7208.555 -406.246 7205.555 L -406.246 7205.555 L -404.746 7229.255 L -404.746 7229.255 Q -414.646 7232.855 -425.446 7232.855 L -425.446 7232.855 L -425.446 7232.855 Z  M -209.246 7008.455 L -180.446 7008.455 L -180.446 7231.055 L -208.046 7231.055 L -208.046 7205.855 L -208.046 7205.855 Q -217.646 7219.055 -232.346 7225.955 L -232.346 7225.955 L -232.346 7225.955 Q -247.046 7232.855 -264.746 7232.855 L -264.746 7232.855 L -264.746 7232.855 Q -287.846 7232.855 -306.146 7222.655 L -306.146 7222.655 L -306.146 7222.655 Q -324.446 7212.455 -334.796 7194.005 L -334.796 7194.005 L -334.796 7194.005 Q -345.146 7175.555 -345.146 7151.555 L -345.146 7151.555 L -345.146 7151.555 Q -345.146 7127.555 -334.796 7109.255 L -334.796 7109.255 L -334.796 7109.255 Q -324.446 7090.955 -306.146 7080.755 L -306.146 7080.755 L -306.146 7080.755 Q -287.846 7070.555 -264.746 7070.555 L -264.746 7070.555 L -264.746 7070.555 Q -247.646 7070.555 -233.246 7077.005 L -233.246 7077.005 L -233.246 7077.005 Q -218.846 7083.455 -209.246 7096.055 L -209.246 7096.055 L -209.246 7008.455 L -209.246 7008.455 Z  M -262.346 7207.655 L -262.346 7207.655 Q -247.346 7207.655 -235.046 7200.605 L -235.046 7200.605 L -235.046 7200.605 Q -222.746 7193.555 -215.846 7180.805 L -215.846 7180.805 L -215.846 7180.805 Q -208.946 7168.055 -208.946 7151.555 L -208.946 7151.555 L -208.946 7151.555 Q -208.946 7135.055 -215.846 7122.305 L -215.846 7122.305 L -215.846 7122.305 Q -222.746 7109.555 -235.046 7102.655 L -235.046 7102.655 L -235.046 7102.655 Q -247.346 7095.755 -262.346 7095.755 L -262.346 7095.755 L -262.346 7095.755 Q -277.646 7095.755 -289.796 7102.655 L -289.796 7102.655 L -289.796 7102.655 Q -301.946 7109.555 -308.996 7122.305 L -308.996 7122.305 L -308.996 7122.305 Q -316.046 7135.055 -316.046 7151.555 L -316.046 7151.555 L -316.046 7151.555 Q -316.046 7168.055 -308.996 7180.805 L -308.996 7180.805 L -308.996 7180.805 Q -301.946 7193.555 -289.796 7200.605 L -289.796 7200.605 L -289.796 7200.605 Q -277.646 7207.655 -262.346 7207.655 L -262.346 7207.655 L -262.346 7207.655 Z " fill="rgb(0,0,0)"/><path d=" M 2748.8 7381.935 L 2748.8 7381.935 Q 2773.8 7381.935 2787.8 7397.635 L 2787.8 7397.635 L 2787.8 7397.635 Q 2801.8 7413.335 2801.8 7442.335 L 2801.8 7442.335 L 2801.8 7524.335 L 2769.4 7524.335 L 2769.4 7443.335 L 2769.4 7443.335 Q 2769.4 7426.535 2761.5 7418.035 L 2761.5 7418.035 L 2761.5 7418.035 Q 2753.6 7409.535 2739.6 7409.535 L 2739.6 7409.535 L 2739.6 7409.535 Q 2724.8 7409.535 2715.9 7418.635 L 2715.9 7418.635 L 2715.9 7418.635 Q 2707 7427.735 2707 7445.535 L 2707 7445.535 L 2707 7524.335 L 2674.6 7524.335 L 2674.6 7384.335 L 2706 7384.335 L 2706 7401.335 L 2706 7401.335 Q 2713.2 7391.735 2724 7386.835 L 2724 7386.835 L 2724 7386.835 Q 2734.8 7381.935 2748.8 7381.935 L 2748.8 7381.935 L 2748.8 7381.935 Z  M 2932.8 7525.935 L 2932.8 7525.935 Q 2915.8 7525.935 2902.3 7518.835 L 2902.3 7518.835 L 2902.3 7518.835 Q 2888.8 7511.735 2881.2 7499.135 L 2881.2 7499.135 L 2881.2 7499.135 Q 2873.6 7486.535 2873.6 7470.535 L 2873.6 7470.535 L 2873.6 7470.535 Q 2873.6 7454.535 2881.2 7441.935 L 2881.2 7441.935 L 2881.2 7441.935 Q 2888.8 7429.335 2902.3 7422.235 L 2902.3 7422.235 L 2902.3 7422.235 Q 2915.8 7415.135 2932.8 7415.135 L 2932.8 7415.135 L 2932.8 7415.135 Q 2949.8 7415.135 2963.2 7422.235 L 2963.2 7422.235 L 2963.2 7422.235 Q 2976.6 7429.335 2984.2 7441.935 L 2984.2 7441.935 L 2984.2 7441.935 Q 2991.8 7454.535 2991.8 7470.535 L 2991.8 7470.535 L 2991.8 7470.535 Q 2991.8 7486.535 2984.2 7499.135 L 2984.2 7499.135 L 2984.2 7499.135 Q 2976.6 7511.735 2963.2 7518.835 L 2963.2 7518.835 L 2963.2 7518.835 Q 2949.8 7525.935 2932.8 7525.935 L 2932.8 7525.935 L 2932.8 7525.935 Z  M 2932.8 7500.335 L 2932.8 7500.335 Q 2944.8 7500.335 2952.5 7492.235 L 2952.5 7492.235 L 2952.5 7492.235 Q 2960.2 7484.135 2960.2 7470.535 L 2960.2 7470.535 L 2960.2 7470.535 Q 2960.2 7456.935 2952.5 7448.835 L 2952.5 7448.835 L 2952.5 7448.835 Q 2944.8 7440.735 2932.8 7440.735 L 2932.8 7440.735 L 2932.8 7440.735 Q 2920.8 7440.735 2913 7448.835 L 2913 7448.835 L 2913 7448.835 Q 2905.2 7456.935 2905.2 7470.535 L 2905.2 7470.535 L 2905.2 7470.535 Q 2905.2 7484.135 2913 7492.235 L 2913 7492.235 L 2913 7492.235 Q 2920.8 7500.335 2932.8 7500.335 L 2932.8 7500.335 L 2932.8 7500.335 Z  M 3119.2 7497.135 L 3127.4 7519.135 L 3127.4 7519.135 Q 3122.8 7522.535 3116.1 7524.235 L 3116.1 7524.235 L 3116.1 7524.235 Q 3109.4 7525.935 3102.2 7525.935 L 3102.2 7525.935 L 3102.2 7525.935 Q 3082.8 7525.935 3072.4 7516.135 L 3072.4 7516.135 L 3072.4 7516.135 Q 3062 7506.335 3062 7487.335 L 3062 7487.335 L 3062 7392.935 L 3093.2 7392.935 L 3093.2 7419.135 L 3119.8 7419.135 L 3119.8 7443.135 L 3093.2 7443.135 L 3093.2 7486.935 L 3093.2 7486.935 Q 3093.2 7493.735 3096.6 7497.435 L 3096.6 7497.435 L 3096.6 7497.435 Q 3100 7501.135 3106.4 7501.135 L 3106.4 7501.135 L 3106.4 7501.135 Q 3113.6 7501.135 3119.2 7497.135 L 3119.2 7497.135 L 3119.2 7497.135 Z  M 3245.8 7500.935 L 3245.8 7500.935 Q 3254.2 7500.935 3260.7 7498.435 L 3260.7 7498.435 L 3260.7 7498.435 Q 3267.2 7495.935 3272.8 7490.535 L 3272.8 7490.535 L 3289.4 7508.535 L 3289.4 7508.535 Q 3274.2 7525.935 3245 7525.935 L 3245 7525.935 L 3245 7525.935 Q 3226.8 7525.935 3212.8 7518.835 L 3212.8 7518.835 L 3212.8 7518.835 Q 3198.8 7511.735 3191.2 7499.135 L 3191.2 7499.135 L 3191.2 7499.135 Q 3183.6 7486.535 3183.6 7470.535 L 3183.6 7470.535 L 3183.6 7470.535 Q 3183.6 7454.735 3191.1 7442.035 L 3191.1 7442.035 L 3191.1 7442.035 Q 3198.6 7429.335 3211.7 7422.235 L 3211.7 7422.235 L 3211.7 7422.235 Q 3224.8 7415.135 3241.2 7415.135 L 3241.2 7415.135 L 3241.2 7415.135 Q 3256.6 7415.135 3269.2 7421.635 L 3269.2 7421.635 L 3269.2 7421.635 Q 3281.8 7428.135 3289.3 7440.435 L 3289.3 7440.435 L 3289.3 7440.435 Q 3296.8 7452.735 3296.8 7469.535 L 3296.8 7469.535 L 3217.2 7484.935 L 3217.2 7484.935 Q 3220.6 7492.935 3227.9 7496.935 L 3227.9 7496.935 L 3227.9 7496.935 Q 3235.2 7500.935 3245.8 7500.935 L 3245.8 7500.935 L 3245.8 7500.935 Z  M 3241.2 7438.735 L 3241.2 7438.735 Q 3229.4 7438.735 3222 7446.335 L 3222 7446.335 L 3222 7446.335 Q 3214.6 7453.935 3214.2 7467.335 L 3214.2 7467.335 L 3266.6 7457.135 L 3266.6 7457.135 Q 3264.4 7448.735 3257.6 7443.735 L 3257.6 7443.735 L 3257.6 7443.735 Q 3250.8 7438.735 3241.2 7438.735 L 3241.2 7438.735 L 3241.2 7438.735 Z  M 3404 7525.935 L 3404 7525.935 Q 3390.6 7525.935 3377.8 7522.635 L 3377.8 7522.635 L 3377.8 7522.635 Q 3365 7519.335 3357.4 7514.335 L 3357.4 7514.335 L 3367.8 7491.935 L 3367.8 7491.935 Q 3375 7496.535 3385.2 7499.435 L 3385.2 7499.435 L 3385.2 7499.435 Q 3395.4 7502.335 3405.2 7502.335 L 3405.2 7502.335 L 3405.2 7502.335 Q 3425 7502.335 3425 7492.535 L 3425 7492.535 L 3425 7492.535 Q 3425 7487.935 3419.6 7485.935 L 3419.6 7485.935 L 3419.6 7485.935 Q 3414.2 7483.935 3403 7482.535 L 3403 7482.535 L 3403 7482.535 Q 3389.8 7480.535 3381.2 7477.935 L 3381.2 7477.935 L 3381.2 7477.935 Q 3372.6 7475.335 3366.3 7468.735 L 3366.3 7468.735 L 3366.3 7468.735 Q 3360 7462.135 3360 7449.935 L 3360 7449.935 L 3360 7449.935 Q 3360 7439.735 3365.9 7431.835 L 3365.9 7431.835 L 3365.9 7431.835 Q 3371.8 7423.935 3383.1 7419.535 L 3383.1 7419.535 L 3383.1 7419.535 Q 3394.4 7415.135 3409.8 7415.135 L 3409.8 7415.135 L 3409.8 7415.135 Q 3421.2 7415.135 3432.5 7417.635 L 3432.5 7417.635 L 3432.5 7417.635 Q 3443.8 7420.135 3451.2 7424.535 L 3451.2 7424.535 L 3440.8 7446.735 L 3440.8 7446.735 Q 3426.6 7438.735 3409.8 7438.735 L 3409.8 7438.735 L 3409.8 7438.735 Q 3399.8 7438.735 3394.8 7441.535 L 3394.8 7441.535 L 3394.8 7441.535 Q 3389.8 7444.335 3389.8 7448.735 L 3389.8 7448.735 L 3389.8 7448.735 Q 3389.8 7453.735 3395.2 7455.735 L 3395.2 7455.735 L 3395.2 7455.735 Q 3400.6 7457.735 3412.4 7459.535 L 3412.4 7459.535 L 3412.4 7459.535 Q 3425.6 7461.735 3434 7464.235 L 3434 7464.235 L 3434 7464.235 Q 3442.4 7466.735 3448.6 7473.335 L 3448.6 7473.335 L 3448.6 7473.335 Q 3454.8 7479.935 3454.8 7491.735 L 3454.8 7491.735 L 3454.8 7491.735 Q 3454.8 7501.735 3448.8 7509.535 L 3448.8 7509.535 L 3448.8 7509.535 Q 3442.8 7517.335 3431.3 7521.635 L 3431.3 7521.635 L 3431.3 7521.635 Q 3419.8 7525.935 3404 7525.935 L 3404 7525.935 L 3404 7525.935 Z  M 3535.8 7525.935 L 3535.8 7525.935 Q 3527.6 7525.935 3522 7520.335 L 3522 7520.335 L 3522 7520.335 Q 3516.4 7514.735 3516.4 7506.335 L 3516.4 7506.335 L 3516.4 7506.335 Q 3516.4 7497.735 3522 7492.435 L 3522 7492.435 L 3522 7492.435 Q 3527.6 7487.135 3535.8 7487.135 L 3535.8 7487.135 L 3535.8 7487.135 Q 3544 7487.135 3549.6 7492.435 L 3549.6 7492.435 L 3549.6 7492.435 Q 3555.2 7497.735 3555.2 7506.335 L 3555.2 7506.335 L 3555.2 7506.335 Q 3555.2 7514.735 3549.6 7520.335 L 3549.6 7520.335 L 3549.6 7520.335 Q 3544 7525.935 3535.8 7525.935 L 3535.8 7525.935 L 3535.8 7525.935 Z  M 2739.8 7214.495 L 2739.8 7214.495 Q 2723 7214.495 2714.4 7221.795 L 2714.4 7221.795 L 2714.4 7221.795 Q 2705.8 7229.095 2705.8 7243.695 L 2705.8 7243.695 L 2705.8 7252.295 L 2763.4 7252.295 L 2763.4 7278.295 L 2705.8 7278.295 L 2705.8 7329.295 L 2673.4 7329.295 L 2673.4 7243.895 L 2673.4 7243.895 Q 2673.4 7216.895 2690.3 7201.895 L 2690.3 7201.895 L 2690.3 7201.895 Q 2707.2 7186.895 2737.6 7186.895 L 2737.6 7186.895 L 2737.6 7186.895 Q 2749.6 7186.895 2760.2 7189.395 L 2760.2 7189.395 L 2760.2 7189.395 Q 2770.8 7191.895 2778.6 7196.695 L 2778.6 7196.695 L 2768.6 7222.295 L 2768.6 7222.295 Q 2756.6 7214.495 2739.8 7214.495 L 2739.8 7214.495 L 2739.8 7214.495 Z  M 2841.4 7329.295 L 2841.4 7221.695 L 2872.6 7221.695 L 2872.6 7329.295 L 2841.4 7329.295 L 2841.4 7329.295 Z  M 2857 7206.695 L 2857 7206.695 Q 2848.4 7206.695 2843 7201.695 L 2843 7201.695 L 2843 7201.695 Q 2837.6 7196.695 2837.6 7189.295 L 2837.6 7189.295 L 2837.6 7189.295 Q 2837.6 7181.895 2843 7176.895 L 2843 7176.895 L 2843 7176.895 Q 2848.4 7171.895 2857 7171.895 L 2857 7171.895 L 2857 7171.895 Q 2865.6 7171.895 2871 7176.695 L 2871 7176.695 L 2871 7176.695 Q 2876.4 7181.495 2876.4 7188.695 L 2876.4 7188.695 L 2876.4 7188.695 Q 2876.4 7196.495 2871 7201.595 L 2871 7201.595 L 2871 7201.595 Q 2865.6 7206.695 2857 7206.695 L 2857 7206.695 L 2857 7206.695 Z  M 3005.8 7305.895 L 3005.8 7305.895 Q 3014.2 7305.895 3020.7 7303.395 L 3020.7 7303.395 L 3020.7 7303.395 Q 3027.2 7300.895 3032.8 7295.495 L 3032.8 7295.495 L 3049.4 7313.495 L 3049.4 7313.495 Q 3034.2 7330.895 3005 7330.895 L 3005 7330.895 L 3005 7330.895 Q 2986.8 7330.895 2972.8 7323.795 L 2972.8 7323.795 L 2972.8 7323.795 Q 2958.8 7316.695 2951.2 7304.095 L 2951.2 7304.095 L 2951.2 7304.095 Q 2943.6 7291.495 2943.6 7275.495 L 2943.6 7275.495 L 2943.6 7275.495 Q 2943.6 7259.695 2951.1 7246.995 L 2951.1 7246.995 L 2951.1 7246.995 Q 2958.6 7234.295 2971.7 7227.195 L 2971.7 7227.195 L 2971.7 7227.195 Q 2984.8 7220.095 3001.2 7220.095 L 3001.2 7220.095 L 3001.2 7220.095 Q 3016.6 7220.095 3029.2 7226.595 L 3029.2 7226.595 L 3029.2 7226.595 Q 3041.8 7233.095 3049.3 7245.395 L 3049.3 7245.395 L 3049.3 7245.395 Q 3056.8 7257.695 3056.8 7274.495 L 3056.8 7274.495 L 2977.2 7289.895 L 2977.2 7289.895 Q 2980.6 7297.895 2987.9 7301.895 L 2987.9 7301.895 L 2987.9 7301.895 Q 2995.2 7305.895 3005.8 7305.895 L 3005.8 7305.895 L 3005.8 7305.895 Z  M 3001.2 7243.695 L 3001.2 7243.695 Q 2989.4 7243.695 2982 7251.295 L 2982 7251.295 L 2982 7251.295 Q 2974.6 7258.895 2974.2 7272.295 L 2974.2 7272.295 L 3026.6 7262.095 L 3026.6 7262.095 Q 3024.4 7253.695 3017.6 7248.695 L 3017.6 7248.695 L 3017.6 7248.695 Q 3010.8 7243.695 3001.2 7243.695 L 3001.2 7243.695 L 3001.2 7243.695 Z  M 3166.4 7330.895 L 3166.4 7330.895 Q 3148.2 7330.895 3138 7321.195 L 3138 7321.195 L 3138 7321.195 Q 3127.8 7311.495 3127.8 7293.695 L 3127.8 7293.695 L 3127.8 7180.895 L 3159 7180.895 L 3159 7291.895 L 3159 7291.895 Q 3159 7298.695 3162.5 7302.395 L 3162.5 7302.395 L 3162.5 7302.395 Q 3166 7306.095 3172.4 7306.095 L 3172.4 7306.095 L 3172.4 7306.095 Q 3174.8 7306.095 3177.3 7305.495 L 3177.3 7305.495 L 3177.3 7305.495 Q 3179.8 7304.895 3181.2 7304.095 L 3181.2 7304.095 L 3182.6 7328.295 L 3182.6 7328.295 Q 3174.8 7330.895 3166.4 7330.895 L 3166.4 7330.895 L 3166.4 7330.895 Z  M 3324.4 7180.895 L 3355.6 7180.895 L 3355.6 7329.295 L 3325.8 7329.295 L 3325.8 7316.895 L 3325.8 7316.895 Q 3314.2 7330.895 3292.2 7330.895 L 3292.2 7330.895 L 3292.2 7330.895 Q 3277 7330.895 3264.7 7324.095 L 3264.7 7324.095 L 3264.7 7324.095 Q 3252.4 7317.295 3245.4 7304.695 L 3245.4 7304.695 L 3245.4 7304.695 Q 3238.4 7292.095 3238.4 7275.495 L 3238.4 7275.495 L 3238.4 7275.495 Q 3238.4 7258.895 3245.4 7246.295 L 3245.4 7246.295 L 3245.4 7246.295 Q 3252.4 7233.695 3264.7 7226.895 L 3264.7 7226.895 L 3264.7 7226.895 Q 3277 7220.095 3292.2 7220.095 L 3292.2 7220.095 L 3292.2 7220.095 Q 3312.8 7220.095 3324.4 7233.095 L 3324.4 7233.095 L 3324.4 7180.895 L 3324.4 7180.895 Z  M 3297.6 7305.295 L 3297.6 7305.295 Q 3309.4 7305.295 3317.2 7297.195 L 3317.2 7297.195 L 3317.2 7297.195 Q 3325 7289.095 3325 7275.495 L 3325 7275.495 L 3325 7275.495 Q 3325 7261.895 3317.2 7253.795 L 3317.2 7253.795 L 3317.2 7253.795 Q 3309.4 7245.695 3297.6 7245.695 L 3297.6 7245.695 L 3297.6 7245.695 Q 3285.6 7245.695 3277.8 7253.795 L 3277.8 7253.795 L 3277.8 7253.795 Q 3270 7261.895 3270 7275.495 L 3270 7275.495 L 3270 7275.495 Q 3270 7289.095 3277.8 7297.195 L 3277.8 7297.195 L 3277.8 7297.195 Q 3285.6 7305.295 3297.6 7305.295 L 3297.6 7305.295 L 3297.6 7305.295 Z  M 2834.4 6991.855 L 2834.4 6991.855 Q 2859.2 6991.855 2873 7006.355 L 2873 7006.355 L 2873 7006.355 Q 2886.8 7020.855 2886.8 7048.255 L 2886.8 7048.255 L 2886.8 7134.255 L 2854.4 7134.255 L 2854.4 7049.255 L 2854.4 7049.255 Q 2854.4 7034.455 2846.7 7026.955 L 2846.7 7026.955 L 2846.7 7026.955 Q 2839 7019.455 2826.4 7019.455 L 2826.4 7019.455 L 2826.4 7019.455 Q 2812.6 7019.455 2804.4 7027.355 L 2804.4 7027.355 L 2804.4 7027.355 Q 2796.2 7035.255 2796.2 7051.255 L 2796.2 7051.255 L 2796.2 7134.255 L 2763.8 7134.255 L 2763.8 7049.255 L 2763.8 7049.255 Q 2763.8 7034.455 2756.6 7026.955 L 2756.6 7026.955 L 2756.6 7026.955 Q 2749.4 7019.455 2737 7019.455 L 2737 7019.455 L 2737 7019.455 Q 2723.4 7019.455 2715.2 7027.355 L 2715.2 7027.355 L 2715.2 7027.355 Q 2707 7035.255 2707 7051.255 L 2707 7051.255 L 2707 7134.255 L 2674.6 7134.255 L 2674.6 6994.255 L 2706 6994.255 L 2706 7011.455 L 2706 7011.455 Q 2712.4 7002.055 2723 6996.955 L 2723 6996.955 L 2723 6996.955 Q 2733.6 6991.855 2747.4 6991.855 L 2747.4 6991.855 L 2747.4 6991.855 Q 2761.8 6991.855 2772.6 6997.155 L 2772.6 6997.155 L 2772.6 6997.155 Q 2783.4 7002.455 2789.2 7012.455 L 2789.2 7012.455 L 2789.2 7012.455 Q 2796.4 7002.455 2808.1 6997.155 L 2808.1 6997.155 L 2808.1 6997.155 Q 2819.8 6991.855 2834.4 6991.855 L 2834.4 6991.855 L 2834.4 6991.855 Z  M 3044.6 7026.655 L 3075.8 7026.655 L 3075.8 7134.255 L 3046 7134.255 L 3046 7121.855 L 3046 7121.855 Q 3034.4 7135.855 3012.4 7135.855 L 3012.4 7135.855 L 3012.4 7135.855 Q 2997.2 7135.855 2984.9 7129.055 L 2984.9 7129.055 L 2984.9 7129.055 Q 2972.6 7122.255 2965.6 7109.655 L 2965.6 7109.655 L 2965.6 7109.655 Q 2958.6 7097.055 2958.6 7080.455 L 2958.6 7080.455 L 2958.6 7080.455 Q 2958.6 7063.855 2965.6 7051.255 L 2965.6 7051.255 L 2965.6 7051.255 Q 2972.6 7038.655 2984.9 7031.855 L 2984.9 7031.855 L 2984.9 7031.855 Q 2997.2 7025.055 3012.4 7025.055 L 3012.4 7025.055 L 3012.4 7025.055 Q 3033 7025.055 3044.6 7038.055 L 3044.6 7038.055 L 3044.6 7026.655 L 3044.6 7026.655 Z  M 3017.8 7110.255 L 3017.8 7110.255 Q 3029.6 7110.255 3037.4 7102.155 L 3037.4 7102.155 L 3037.4 7102.155 Q 3045.2 7094.055 3045.2 7080.455 L 3045.2 7080.455 L 3045.2 7080.455 Q 3045.2 7066.855 3037.4 7058.755 L 3037.4 7058.755 L 3037.4 7058.755 Q 3029.6 7050.655 3017.8 7050.655 L 3017.8 7050.655 L 3017.8 7050.655 Q 3005.8 7050.655 2998 7058.755 L 2998 7058.755 L 2998 7058.755 Q 2990.2 7066.855 2990.2 7080.455 L 2990.2 7080.455 L 2990.2 7080.455 Q 2990.2 7094.055 2998 7102.155 L 2998 7102.155 L 2998 7102.155 Q 3005.8 7110.255 3017.8 7110.255 L 3017.8 7110.255 L 3017.8 7110.255 Z  M 3206.6 7135.855 L 3206.6 7135.855 Q 3189.4 7135.855 3175.7 7128.755 L 3175.7 7128.755 L 3175.7 7128.755 Q 3162 7121.655 3154.3 7109.055 L 3154.3 7109.055 L 3154.3 7109.055 Q 3146.6 7096.455 3146.6 7080.455 L 3146.6 7080.455 L 3146.6 7080.455 Q 3146.6 7064.455 3154.3 7051.855 L 3154.3 7051.855 L 3154.3 7051.855 Q 3162 7039.255 3175.7 7032.155 L 3175.7 7032.155 L 3175.7 7032.155 Q 3189.4 7025.055 3206.6 7025.055 L 3206.6 7025.055 L 3206.6 7025.055 Q 3223.6 7025.055 3236.3 7032.155 L 3236.3 7032.155 L 3236.3 7032.155 Q 3249 7039.255 3254.8 7052.455 L 3254.8 7052.455 L 3230.6 7065.455 L 3230.6 7065.455 Q 3222.2 7050.655 3206.4 7050.655 L 3206.4 7050.655 L 3206.4 7050.655 Q 3194.2 7050.655 3186.2 7058.655 L 3186.2 7058.655 L 3186.2 7058.655 Q 3178.2 7066.655 3178.2 7080.455 L 3178.2 7080.455 L 3178.2 7080.455 Q 3178.2 7094.255 3186.2 7102.255 L 3186.2 7102.255 L 3186.2 7102.255 Q 3194.2 7110.255 3206.4 7110.255 L 3206.4 7110.255 L 3206.4 7110.255 Q 3222.4 7110.255 3230.6 7095.455 L 3230.6 7095.455 L 3254.8 7108.655 L 3254.8 7108.655 Q 3249 7121.455 3236.3 7128.655 L 3236.3 7128.655 L 3236.3 7128.655 Q 3223.6 7135.855 3206.6 7135.855 L 3206.6 7135.855 L 3206.6 7135.855 Z " fill="rgb(0,0,0)"/></g></svg>